<!--?xml version="1.0" standalone="no"?-->
              <svg id="sw-js-blob-svg" viewBox="0 0 100 100" xmlns="http://www.w3.org/2000/svg" version="1.1">
                    <defs> 
                        <linearGradient id="sw-gradient" x1="0" x2="1" y1="1" y2="0">
                            <stop id="stop1" stop-color="rgba(71, 85, 105, 1)" offset="0%"></stop>
                            <stop id="stop2" stop-color="rgba(51, 65, 85, 1)" offset="100%"></stop>
                        </linearGradient>
                    </defs>
                <path fill="url(#sw-gradient)" d="M19.8,-31.8C24.8,-27.6,27.4,-20.6,31.1,-13.8C34.8,-7,39.7,-0.3,41,7.4C42.3,15.1,39.9,23.8,34.3,29.2C28.8,34.5,20.1,36.6,11.6,38.7C3.1,40.9,-5.1,43.1,-13.1,41.9C-21.1,40.8,-28.9,36.3,-32.1,29.6C-35.3,22.8,-33.9,13.7,-34.9,5.2C-36,-3.4,-39.4,-11.5,-37.5,-17.7C-35.5,-23.9,-28.3,-28.3,-21.1,-31.5C-14,-34.7,-7,-36.8,0.2,-37.1C7.4,-37.4,14.8,-36,19.8,-31.8Z" width="100%" height="100%" transform="translate(50 50)" stroke-width="0" style="transition: 0.3s;" stroke="url(#sw-gradient)"></path>
              </svg>