<svg xmlns="http://www.w3.org/2000/svg" viewBox="0 0 750 500"><g id="freepik--Plant--inject-12"><path d="M687.17,320.35h0a.1.1,0,0,0,0-.11.08.08,0,0,0-.11,0A114.26,114.26,0,0,0,681,339a176.32,176.32,0,0,0-3.29,19.41l-.47,4.9c-.07.82-.16,1.64-.22,2.46l-.13,2.46c-.07,1.64-.17,3.28-.22,4.92l0,4.93,0,2.47c0,.82.1,1.64.15,2.46.13,1.64.23,3.28.38,4.91.31,3.27.8,6.52,1.31,9.76a.08.08,0,0,0,.08.07.09.09,0,0,0,.09-.09h0c0-1.65-.08-3.28-.12-4.92s-.19-3.26-.16-4.89,0-3.26-.06-4.89l0-2.45,0-2.44,0-4.89.14-4.88.05-2.44c0-.82.09-1.63.13-2.44l.3-4.88a175.87,175.87,0,0,1,2.77-19.36A113.67,113.67,0,0,1,687.17,320.35Z" style="fill:#263238"></path><path d="M687.87,345.89a.09.09,0,0,0,0-.11.1.1,0,0,0-.11.06A113,113,0,0,0,682.18,371c-.43,4.28-.91,8.56-1,12.86a104.8,104.8,0,0,0,.46,12.89.07.07,0,0,0,.07.07.08.08,0,0,0,.1-.07c.5-4.28.8-8.55,1.09-12.82s.35-8.54.63-12.81a113.38,113.38,0,0,1,1.52-12.7A117.14,117.14,0,0,1,687.87,345.89Z" style="fill:#263238"></path><path d="M702,354.88a.1.1,0,0,0-.12,0,43.1,43.1,0,0,0-9.47,8.26,37,37,0,0,0-3.7,5.14l-.77,1.44-.59,1.49a12.86,12.86,0,0,0-.52,1.51c-.15.51-.33,1-.46,1.53a60.48,60.48,0,0,0-2,12.49,72.56,72.56,0,0,0,.47,12.59.09.09,0,0,0,.08.07.08.08,0,0,0,.09-.08l1.08-12.45a109,109,0,0,1,1.58-12.28c.11-.5.25-1,.38-1.49a11.89,11.89,0,0,1,.44-1.47l.5-1.44.65-1.36a37,37,0,0,1,3.4-5.15A42.65,42.65,0,0,1,702,355h0A.08.08,0,0,0,702,354.88Z" style="fill:#263238"></path><path d="M695.18,370.88a13.66,13.66,0,0,0-4.3,5.17,30.9,30.9,0,0,0-2.42,6.35c-.17.54-.3,1.09-.42,1.64l-.39,1.66a29.09,29.09,0,0,0-.42,3.36c0,1.13,0,2.26,0,3.39a29.75,29.75,0,0,0,.45,3.36.09.09,0,0,0,.06.07.09.09,0,0,0,.11-.07,32.46,32.46,0,0,0,.6-3.31c.17-1.1.34-2.19.47-3.28s.31-2.17.39-3.26.23-2.18.47-3.25a29.61,29.61,0,0,1,1.84-6.28,13.92,13.92,0,0,1,3.62-5.4h0a.09.09,0,0,0,0-.12A.08.08,0,0,0,695.18,370.88Z" style="fill:#263238"></path><path d="M675.32,383.35c-.46-5.53-1.38-11-2.24-16.47s-1.82-10.93-2.82-16.37-2.12-10.87-3.29-16.28a.08.08,0,0,0-.1-.06.08.08,0,0,0-.07.1c1,5.45,1.8,10.91,2.61,16.38s1.61,10.94,2.3,16.43,1.21,11,1.89,16.45l2,16.46a.09.09,0,0,0,.08.08.09.09,0,0,0,.09-.08c.06-1.39.06-2.78.1-4.17s-.06-2.77-.08-4.16C675.77,388.88,675.53,386.12,675.32,383.35Z" style="fill:#263238"></path><path d="M672,383.27c-.3-2.19-.7-4.36-1.12-6.53l-.78-3.23c-.25-1.08-.49-2.16-.81-3.22a91.41,91.41,0,0,0-4.22-12.57l-.67-1.52-.73-1.49c-.47-1-1-2-1.58-2.92a24,24,0,0,0-4-5.29.07.07,0,0,0-.11,0,.08.08,0,0,0,0,.12h0a24.36,24.36,0,0,1,3.65,5.41c.48,1,1,1.95,1.4,3l.65,1.51.58,1.53A90.16,90.16,0,0,1,668,370.62c.51,2.13.84,4.3,1.25,6.44l.52,3.24c.19,1.08.42,2.15.57,3.23.34,2.16.74,4.32,1.12,6.48s.73,4.34,1.19,6.5a.08.08,0,0,0,.08.07.08.08,0,0,0,.09-.08q0-3.31-.16-6.63C672.5,387.67,672.24,385.47,672,383.27Z" style="fill:#263238"></path><path d="M667.43,383.56c-1-2.91-2.21-5.74-3.5-8.53a78.66,78.66,0,0,0-4.4-8.07.1.1,0,0,0-.12,0,.08.08,0,0,0,0,.12,77.6,77.6,0,0,1,3.76,8.32c1.12,2.83,2.13,5.7,3,8.62s1.48,5.88,2.26,8.8,1.47,5.88,2.37,8.84a.09.09,0,0,0,.08.06.09.09,0,0,0,.09-.08,44.33,44.33,0,0,0-.86-9.2A56.6,56.6,0,0,0,667.43,383.56Z" style="fill:#263238"></path><path d="M667.24,393.22a20,20,0,0,0-2.43-5.11,21.48,21.48,0,0,0-3.55-4.4A16.19,16.19,0,0,0,659,382a9.46,9.46,0,0,0-2.55-1.15.08.08,0,0,0-.1.05.08.08,0,0,0,0,.11h0a12.67,12.67,0,0,1,4.24,3.3,20.13,20.13,0,0,1,3,4.47c.84,1.59,1.27,3.34,2,5,.33.84.65,1.68,1,2.52a18.93,18.93,0,0,0,1.11,2.55h0a.09.09,0,0,0,.17,0,20.4,20.4,0,0,0-.11-2.82C667.66,395.06,667.46,394.14,667.24,393.22Z" style="fill:#263238"></path><path d="M667.58,342.15a15.73,15.73,0,0,1-11.15-11.85c-2.09-9.76,4.65-5.57-1.39-20.91s-4.65-18.81-2.56-23.23,3.26-3,5.11,2.79,8.6,14.87,11.15,31.83S667.58,342.15,667.58,342.15Z" style="fill:#99AAB2"></path><path d="M685.47,325.65s-6-2.09-6.27-13.47,4.41-9.06,5.11-23.23,1.62-24.16,4.18-24.39,9.29,7,11.61,22.77-3,26.25-7.66,30.89S685.47,325.65,685.47,325.65Z" style="fill:#99AAB2"></path><path d="M664.33,355.85s-1.39-8.36-4.18-12.31-8.83-7.43-12.78-15.1-8.36-11.38-8.13-.46,5.11,16.49,11.15,20.21S664.33,355.85,664.33,355.85Z" style="fill:#99AAB2"></path><path d="M661.77,370.26s-5.57-10.69-13.7-18.59-14.64-11.85-12.31-7.9,5.11,3.72,9.06,10.69,2.78,12.08,8.36,16S661.77,370.26,661.77,370.26Z" style="fill:#99AAB2"></path><path d="M661.08,384c-.23-.7-.47-5.81-8.36-10s-15.34-2.55-14.41-.46,5.81,5.57,10.69,7.66S661.08,384,661.08,384Z" style="fill:#99AAB2"></path><path d="M685,356.32s-3.48-4.42-1.62-13.71,6-7,10.68-11.84,3.72-5.58,8.37-10.69,8.82-7.9,10.68-5.81-.93,8.6-3.71,12.31-7.21,5.58-9.3,10.22-1.16,12.08-6.5,15.57S685,356.32,685,356.32Z" style="fill:#99AAB2"></path><path d="M696.62,358.87s8.36-9.52,14.4-16.49,8.36-12.31,8.6-7.67,2.09,8.37-2.79,14.41S696.62,358.87,696.62,358.87Z" style="fill:#99AAB2"></path><path d="M692.21,374.2s-.24-3.71,13-12.31,18.82-10.22,17.43-6.73-7.2,7-13.48,13.24S692.21,374.2,692.21,374.2Z" style="fill:#99AAB2"></path><path d="M668.13,341.16s-3.1-16.67-6.36-28.51-5.34-19-5.34-19" style="fill:none;stroke:#263238;stroke-linecap:round;stroke-linejoin:round"></path><path d="M684.93,325.83s5.65-18.06,7.51-29-.23-19.05-1.16-23.93" style="fill:none;stroke:#263238;stroke-linecap:round;stroke-linejoin:round"></path><path d="M663.6,355.5A87.84,87.84,0,0,0,655,343.31c-5.11-6-9.06-9.29-11.38-15.1" style="fill:none;stroke:#263238;stroke-linecap:round;stroke-linejoin:round"></path><path d="M685,356.32s1.86-11.15,6.28-17,13.24-14.87,16.72-20.67" style="fill:none;stroke:#263238;stroke-linecap:round;stroke-linejoin:round"></path><path d="M660.53,383.71s-7.81-5.09-13.39-7.88" style="fill:none;stroke:#263238;stroke-linecap:round;stroke-linejoin:round"></path><path d="M685,445.25a7,7,0,0,0,7-6.38c1.15-13.79,3.58-44.79,2.33-46.31-5.12-6.25-27.17-6.25-32.29,0-1.25,1.52,1.17,32.52,2.32,46.31a7,7,0,0,0,6.95,6.38Z" style="fill:#263238;stroke:#263238;stroke-linecap:round;stroke-linejoin:round"></path></g><g id="freepik--Floor--inject-12"><line x1="17.01" y1="445.29" x2="734.14" y2="445.29" style="fill:none;stroke:#263238;stroke-linecap:round;stroke-linejoin:round"></line></g><g id="freepik--paper-bin--inject-12"><polygon points="53.27 377.79 99.68 377.79 96.2 445.35 56.76 445.35 53.27 377.79" style="fill:#fff;stroke:#263238;stroke-linecap:round;stroke-linejoin:round"></polygon><polygon points="99.12 388.72 99.68 377.79 53.27 377.79 53.84 388.72 99.12 388.72" style="fill:#fff;stroke:#263238;stroke-linecap:round;stroke-linejoin:round"></polygon><path d="M82.17,396.54a1.77,1.77,0,1,0,1.77,1.77A1.77,1.77,0,0,0,82.17,396.54Z" style="fill:#fff;stroke:#263238;stroke-linecap:round;stroke-linejoin:round"></path><path d="M78.31,425.65a1.77,1.77,0,1,0,1.76,1.77A1.77,1.77,0,0,0,78.31,425.65Z" style="fill:#fff;stroke:#263238;stroke-linecap:round;stroke-linejoin:round"></path><path d="M82.17,408.14a1.77,1.77,0,1,0,1.77,1.77A1.77,1.77,0,0,0,82.17,408.14Z" style="fill:#fff;stroke:#263238;stroke-linecap:round;stroke-linejoin:round"></path><path d="M85.83,390.86a1.77,1.77,0,1,0,1.77,1.77A1.77,1.77,0,0,0,85.83,390.86Z" style="fill:#fff;stroke:#263238;stroke-linecap:round;stroke-linejoin:round"></path><path d="M82.17,419.74a1.77,1.77,0,1,0,1.77,1.77A1.77,1.77,0,0,0,82.17,419.74Z" style="fill:#fff;stroke:#263238;stroke-linecap:round;stroke-linejoin:round"></path><path d="M85.83,402.45a1.77,1.77,0,1,0,1.77,1.77A1.77,1.77,0,0,0,85.83,402.45Z" style="fill:#fff;stroke:#263238;stroke-linecap:round;stroke-linejoin:round"></path><path d="M82.17,431.34a1.77,1.77,0,1,0,1.77,1.77A1.77,1.77,0,0,0,82.17,431.34Z" style="fill:#fff;stroke:#263238;stroke-linecap:round;stroke-linejoin:round"></path><path d="M74.65,408.14a1.77,1.77,0,1,0,1.77,1.77A1.77,1.77,0,0,0,74.65,408.14Z" style="fill:#fff;stroke:#263238;stroke-linecap:round;stroke-linejoin:round"></path><path d="M74.65,431.34a1.77,1.77,0,1,0,1.77,1.77A1.77,1.77,0,0,0,74.65,431.34Z" style="fill:#fff;stroke:#263238;stroke-linecap:round;stroke-linejoin:round"></path><path d="M74.65,396.54a1.77,1.77,0,1,0,1.77,1.77A1.77,1.77,0,0,0,74.65,396.54Z" style="fill:#fff;stroke:#263238;stroke-linecap:round;stroke-linejoin:round"></path><path d="M78.31,390.86a1.77,1.77,0,1,0,1.76,1.77A1.77,1.77,0,0,0,78.31,390.86Z" style="fill:#fff;stroke:#263238;stroke-linecap:round;stroke-linejoin:round"></path><path d="M78.31,402.45a1.77,1.77,0,1,0,1.76,1.77A1.77,1.77,0,0,0,78.31,402.45Z" style="fill:#fff;stroke:#263238;stroke-linecap:round;stroke-linejoin:round"></path><circle cx="70.79" cy="427.42" r="1.77" style="fill:#fff;stroke:#263238;stroke-linecap:round;stroke-linejoin:round"></circle><path d="M78.31,414.05a1.77,1.77,0,1,0,1.76,1.77A1.77,1.77,0,0,0,78.31,414.05Z" style="fill:#fff;stroke:#263238;stroke-linecap:round;stroke-linejoin:round"></path><path d="M74.65,419.74a1.77,1.77,0,1,0,1.77,1.77A1.77,1.77,0,0,0,74.65,419.74Z" style="fill:#fff;stroke:#263238;stroke-linecap:round;stroke-linejoin:round"></path><path d="M93.35,414.05a1.77,1.77,0,1,0,1.77,1.77A1.77,1.77,0,0,0,93.35,414.05Z" style="fill:#fff;stroke:#263238;stroke-linecap:round;stroke-linejoin:round"></path><path d="M93.35,437.25A1.77,1.77,0,1,0,95.12,439,1.77,1.77,0,0,0,93.35,437.25Z" style="fill:#fff;stroke:#263238;stroke-linecap:round;stroke-linejoin:round"></path><path d="M93.35,402.45a1.77,1.77,0,1,0,1.77,1.77A1.77,1.77,0,0,0,93.35,402.45Z" style="fill:#fff;stroke:#263238;stroke-linecap:round;stroke-linejoin:round"></path><path d="M97.21,419.74a1.77,1.77,0,0,0,0,3.54l.13,0,.18-3.49A1.55,1.55,0,0,0,97.21,419.74Z" style="fill:#fff;stroke:#263238;stroke-linecap:round;stroke-linejoin:round"></path><path d="M93.35,425.65a1.77,1.77,0,1,0,1.77,1.77A1.77,1.77,0,0,0,93.35,425.65Z" style="fill:#fff;stroke:#263238;stroke-linecap:round;stroke-linejoin:round"></path><path d="M85.83,414.05a1.77,1.77,0,1,0,1.77,1.77A1.77,1.77,0,0,0,85.83,414.05Z" style="fill:#fff;stroke:#263238;stroke-linecap:round;stroke-linejoin:round"></path><path d="M93.35,390.86a1.77,1.77,0,1,0,1.77,1.77A1.77,1.77,0,0,0,93.35,390.86Z" style="fill:#fff;stroke:#263238;stroke-linecap:round;stroke-linejoin:round"></path><path d="M95.44,433.11a1.76,1.76,0,0,0,1.3,1.69l.18-3.44A1.77,1.77,0,0,0,95.44,433.11Z" style="fill:#fff;stroke:#263238;stroke-linecap:round;stroke-linejoin:round"></path><path d="M85.83,425.65a1.77,1.77,0,1,0,1.77,1.77A1.77,1.77,0,0,0,85.83,425.65Z" style="fill:#fff;stroke:#263238;stroke-linecap:round;stroke-linejoin:round"></path><circle cx="89.69" cy="398.31" r="1.77" style="fill:#fff;stroke:#263238;stroke-linecap:round;stroke-linejoin:round"></circle><path d="M85.83,437.25A1.77,1.77,0,1,0,87.6,439,1.77,1.77,0,0,0,85.83,437.25Z" style="fill:#fff;stroke:#263238;stroke-linecap:round;stroke-linejoin:round"></path><path d="M89.69,431.34a1.77,1.77,0,1,0,1.77,1.77A1.77,1.77,0,0,0,89.69,431.34Z" style="fill:#fff;stroke:#263238;stroke-linecap:round;stroke-linejoin:round"></path><path d="M89.69,419.74a1.77,1.77,0,1,0,1.77,1.77A1.77,1.77,0,0,0,89.69,419.74Z" style="fill:#fff;stroke:#263238;stroke-linecap:round;stroke-linejoin:round"></path><circle cx="89.69" cy="409.91" r="1.77" style="fill:#fff;stroke:#263238;stroke-linecap:round;stroke-linejoin:round"></circle><path d="M78.31,437.25A1.77,1.77,0,1,0,80.07,439,1.77,1.77,0,0,0,78.31,437.25Z" style="fill:#fff;stroke:#263238;stroke-linecap:round;stroke-linejoin:round"></path><path d="M55.74,402.45a1.75,1.75,0,0,0-1.17.46l.14,2.75a1.77,1.77,0,1,0,1-3.21Z" style="fill:#fff;stroke:#263238;stroke-linecap:round;stroke-linejoin:round"></path><path d="M57.51,439a1.77,1.77,0,0,0-1.17-1.66l.17,3.25A1.77,1.77,0,0,0,57.51,439Z" style="fill:#fff;stroke:#263238;stroke-linecap:round;stroke-linejoin:round"></path><path d="M55.74,414.05a1.93,1.93,0,0,0-.59.11l.17,3.38a2,2,0,0,0,.42,0,1.77,1.77,0,1,0,0-3.54Z" style="fill:#fff;stroke:#263238;stroke-linecap:round;stroke-linejoin:round"></path><path d="M54.07,393.16a1.75,1.75,0,1,0,0-.92Z" style="fill:#fff;stroke:#263238;stroke-linecap:round;stroke-linejoin:round"></path><circle cx="59.61" cy="398.31" r="1.77" style="fill:#fff;stroke:#263238;stroke-linecap:round;stroke-linejoin:round"></circle><path d="M57.51,427.42a1.77,1.77,0,0,0-1.77-1.77h0l.18,3.52A1.76,1.76,0,0,0,57.51,427.42Z" style="fill:#fff;stroke:#263238;stroke-linecap:round;stroke-linejoin:round"></path><path d="M61.38,444.7a1.77,1.77,0,0,0-3.54,0,1.75,1.75,0,0,0,.13.65h3.28A1.75,1.75,0,0,0,61.38,444.7Z" style="fill:#fff;stroke:#263238;stroke-linecap:round;stroke-linejoin:round"></path><path d="M96.31,443.19a1.73,1.73,0,0,0-.74,2.16h.63Z" style="fill:#fff;stroke:#263238;stroke-linecap:round;stroke-linejoin:round"></path><path d="M95.44,409.91a1.77,1.77,0,0,0,2.5,1.61l.17-3.13a1.84,1.84,0,0,0-.9-.25A1.77,1.77,0,0,0,95.44,409.91Z" style="fill:#fff;stroke:#263238;stroke-linecap:round;stroke-linejoin:round"></path><circle cx="70.79" cy="439.02" r="1.77" style="fill:#fff;stroke:#263238;stroke-linecap:round;stroke-linejoin:round"></circle><path d="M68.9,444.7a1.77,1.77,0,0,0-3.54,0,1.75,1.75,0,0,0,.13.65h3.28A1.75,1.75,0,0,0,68.9,444.7Z" style="fill:#fff;stroke:#263238;stroke-linecap:round;stroke-linejoin:round"></path><circle cx="59.61" cy="409.91" r="1.77" style="fill:#fff;stroke:#263238;stroke-linecap:round;stroke-linejoin:round"></circle><path d="M76.42,444.7a1.77,1.77,0,1,0-3.54,0,1.75,1.75,0,0,0,.13.65h3.28A1.75,1.75,0,0,0,76.42,444.7Z" style="fill:#fff;stroke:#263238;stroke-linecap:round;stroke-linejoin:round"></path><path d="M91.46,444.7a1.77,1.77,0,0,0-3.54,0,1.75,1.75,0,0,0,.13.65h3.29A2,2,0,0,0,91.46,444.7Z" style="fill:#fff;stroke:#263238;stroke-linecap:round;stroke-linejoin:round"></path><path d="M83.94,444.7a1.77,1.77,0,0,0-3.54,0,1.75,1.75,0,0,0,.13.65h3.28A1.75,1.75,0,0,0,83.94,444.7Z" style="fill:#fff;stroke:#263238;stroke-linecap:round;stroke-linejoin:round"></path><path d="M97.21,396.54a1.77,1.77,0,1,0,1.36,2.9l.11-2.12A1.78,1.78,0,0,0,97.21,396.54Z" style="fill:#fff;stroke:#263238;stroke-linecap:round;stroke-linejoin:round"></path><path d="M67.13,431.34a1.77,1.77,0,1,0,1.77,1.77A1.77,1.77,0,0,0,67.13,431.34Z" style="fill:#fff;stroke:#263238;stroke-linecap:round;stroke-linejoin:round"></path><path d="M67.13,419.74a1.77,1.77,0,1,0,1.77,1.77A1.77,1.77,0,0,0,67.13,419.74Z" style="fill:#fff;stroke:#263238;stroke-linecap:round;stroke-linejoin:round"></path><path d="M59.61,431.34a1.77,1.77,0,1,0,1.77,1.77A1.77,1.77,0,0,0,59.61,431.34Z" style="fill:#fff;stroke:#263238;stroke-linecap:round;stroke-linejoin:round"></path><path d="M70.79,402.45a1.77,1.77,0,1,0,1.76,1.77A1.77,1.77,0,0,0,70.79,402.45Z" style="fill:#fff;stroke:#263238;stroke-linecap:round;stroke-linejoin:round"></path><circle cx="70.79" cy="392.63" r="1.77" style="fill:#fff;stroke:#263238;stroke-linecap:round;stroke-linejoin:round"></circle><path d="M70.79,414.05a1.77,1.77,0,1,0,1.76,1.77A1.77,1.77,0,0,0,70.79,414.05Z" style="fill:#fff;stroke:#263238;stroke-linecap:round;stroke-linejoin:round"></path><circle cx="67.13" cy="398.31" r="1.77" style="fill:#fff;stroke:#263238;stroke-linecap:round;stroke-linejoin:round"></circle><circle cx="67.13" cy="409.91" r="1.77" style="fill:#fff;stroke:#263238;stroke-linecap:round;stroke-linejoin:round"></circle><circle cx="63.26" cy="392.63" r="1.77" style="fill:#fff;stroke:#263238;stroke-linecap:round;stroke-linejoin:round"></circle><circle cx="63.26" cy="427.42" r="1.77" style="fill:#fff;stroke:#263238;stroke-linecap:round;stroke-linejoin:round"></circle><path d="M63.26,402.45A1.77,1.77,0,1,0,65,404.22,1.77,1.77,0,0,0,63.26,402.45Z" style="fill:#fff;stroke:#263238;stroke-linecap:round;stroke-linejoin:round"></path><path d="M59.61,419.74a1.77,1.77,0,1,0,1.77,1.77A1.77,1.77,0,0,0,59.61,419.74Z" style="fill:#fff;stroke:#263238;stroke-linecap:round;stroke-linejoin:round"></path><circle cx="63.26" cy="439.02" r="1.77" style="fill:#fff;stroke:#263238;stroke-linecap:round;stroke-linejoin:round"></circle><path d="M63.26,414.05A1.77,1.77,0,1,0,65,415.82,1.76,1.76,0,0,0,63.26,414.05Z" style="fill:#fff;stroke:#263238;stroke-linecap:round;stroke-linejoin:round"></path></g><g id="freepik--character-3--inject-12"><rect x="496.17" y="327.46" width="5.42" height="21.68" style="fill:#263238;stroke:#263238;stroke-linecap:round;stroke-linejoin:round"></rect><rect x="579.84" y="327.46" width="5.42" height="21.68" style="fill:#263238;stroke:#263238;stroke-linecap:round;stroke-linejoin:round"></rect><path d="M508,256.64h63.5a7.21,7.21,0,0,1,7.21,7.21v94.62a0,0,0,0,1,0,0H500.82a0,0,0,0,1,0,0V263.85A7.21,7.21,0,0,1,508,256.64Z" style="fill:#ababab;stroke:#263238;stroke-linecap:round;stroke-linejoin:round"></path><path d="M508.36,441.28a4.07,4.07,0,1,0-4.06,4.07A4.06,4.06,0,0,0,508.36,441.28Z" style="fill:#ababab;stroke:#263238;stroke-linecap:round;stroke-linejoin:round"></path><path d="M543.93,441.28a4.07,4.07,0,1,0-4.07,4.07A4.07,4.07,0,0,0,543.93,441.28Z" style="fill:#ababab;stroke:#263238;stroke-linecap:round;stroke-linejoin:round"></path><path d="M579.5,441.28a4.07,4.07,0,1,0-4.07,4.07A4.07,4.07,0,0,0,579.5,441.28Z" style="fill:#ababab;stroke:#263238;stroke-linecap:round;stroke-linejoin:round"></path><polygon points="543.53 420.87 543.53 353.89 536.4 353.89 536.4 420.44 536.14 420.62 499.21 435.53 499.21 439.93 504.97 439.93 504.97 436.88 536.97 432.18 537.56 439.93 541.83 439.93 542.42 432.23 574.08 436.88 574.08 439.93 579.84 439.93 579.84 435.53 543.53 420.87" style="fill:#263238;stroke:#263238;stroke-linecap:round;stroke-linejoin:round"></polygon><rect x="528.45" y="361.3" width="22.67" height="8.03" style="fill:#263238;stroke:#263238;stroke-linecap:round;stroke-linejoin:round"></rect><rect x="494.45" y="343.83" width="90.67" height="17.94" rx="2.74" style="fill:#ababab;stroke:#263238;stroke-linecap:round;stroke-linejoin:round"></rect><rect x="489.73" y="314.93" width="11.18" height="16.6" rx="2.27" style="fill:#ababab;stroke:#263238;stroke-linecap:round;stroke-linejoin:round"></rect><rect x="578.31" y="314.93" width="11.18" height="16.6" rx="2.27" style="fill:#ababab;stroke:#263238;stroke-linecap:round;stroke-linejoin:round"></rect><polygon points="535.38 204.36 558.13 179.85 562.58 212 535.38 204.36" style="fill:#99AAB2;stroke:#263238;stroke-linecap:round;stroke-linejoin:round"></polygon><polygon points="558.13 179.85 552.01 186.44 558.54 182.78 558.13 179.85" style="fill:#263238"></polygon><polygon points="559.5 189.71 559.05 186.49 543.5 195.62 536.4 203.26 559.5 189.71" style="fill:#263238"></polygon><polygon points="560.53 197.17 560.1 194.03 538.14 205.13 542.41 206.34 560.53 197.17" style="fill:#263238"></polygon><polygon points="561.18 201.84 544.69 206.97 550 208.47 561.59 204.85 561.18 201.84" style="fill:#263238"></polygon><path d="M540.42,203.75s-6.78-.63-9.75,5.3-.85,17.18-.63,18,1.48,7.63-1.06,10.38-16.75,14-17.6,23.33,5.09,17.59,17.6,21.2,28.83,1.69,35.82-2.55S577.31,264,575,256.55s-10.39-14.21-12.08-20.78,5.72-9.75,2.75-18.87-12.08-14.63-16.75-15.48S542.54,199.94,540.42,203.75Z" style="fill:#263238;stroke:#263238;stroke-linecap:round;stroke-linejoin:round"></path><path d="M534.28,245.94s-5.22,9.6-5,13-2.32,28.94-2.84,30-16,22.47-17.31,34.1-1.81,17.31,8.78,23,36.43,5.69,45.47,2.07,10.34-15.5,9-24.28-4.9-16.28-8.78-23.26-8.78-14.72-10.07-20.66-.52-22.22-.26-23.77-1.9-8.84-1.9-8.84Z" style="fill:#263238;stroke:#263238;stroke-linecap:round;stroke-linejoin:round"></path><path d="M531.73,225s-3.6-2.55-3.39,1.48a6,6,0,0,0,3.18,5.3Z" style="fill:#fff;stroke:#263238;stroke-linecap:round;stroke-linejoin:round"></path><path d="M543.18,209.27,531.52,219s-1.21,9.91.21,15c.62,2.24,3.18,8.69,6.79,9.75l-1.06,3-3.18-.85-2.55,13.15a49.78,49.78,0,0,0,9.12,1.91c3.6.21,7.84.42,7.84.42l2.76-14.2-3-1.28.42-2.33s4.72-3.45,5.73-5.93a35.13,35.13,0,0,0,2.54-14.84A37,37,0,0,1,543.18,209.27Z" style="fill:#fff;stroke:#263238;stroke-linecap:round;stroke-linejoin:round"></path><path d="M538.52,243.82a31.16,31.16,0,0,0,5.72,0s-4.45,2.55-6.78,3Z" style="fill:#263238;stroke:#263238;stroke-linecap:round;stroke-linejoin:round"></path><path d="M541.7,219.87a2.72,2.72,0,0,1,1.06,2.54,7.75,7.75,0,0,1-1.06,3s-3.18-1.27-3.18.64A4.62,4.62,0,0,0,540,229.2" style="fill:none;stroke:#263238;stroke-linecap:round;stroke-linejoin:round"></path><path d="M538.94,232a7.62,7.62,0,0,0,8.69-1.27s-2.33,4.45-5.09,4.88S538.94,232,538.94,232Z" style="fill:none;stroke:#263238;stroke-linecap:round;stroke-linejoin:round"></path><path d="M547.63,223.9a5.45,5.45,0,0,1,4.45,1.48" style="fill:none;stroke:#263238;stroke-linecap:round;stroke-linejoin:round"></path><path d="M536.18,221.78a3.19,3.19,0,0,1,3.82.42" style="fill:none;stroke:#263238;stroke-linecap:round;stroke-linejoin:round"></path><path d="M534.7,219s1.48-2.54,5.3-.85" style="fill:none;stroke:#263238;stroke-linecap:round;stroke-linejoin:round"></path><path d="M547.63,219.44a5.34,5.34,0,0,1,6.15,2.55" style="fill:none;stroke:#263238;stroke-linecap:round;stroke-linejoin:round"></path><path d="M557,229.41s2.54-3.18,3,0-1.7,5.72-4,5.93Z" style="fill:#fff;stroke:#263238;stroke-linecap:round;stroke-linejoin:round"></path><path d="M551.45,247.22s19.29-9.33,20.35-10,4.78-7.86,4.78-7.86l12.15,9.11s-3.36,4.26-3.78,4.9S563.74,261,563.74,261s-5.93,21.62-6.14,22.89,18.65,24.39,20.14,25.23,4.66,2.55,3.6,3.82-5.72,6.36-12.08,6.78-12.51-7.42-15.48-13.35A40.94,40.94,0,0,1,550,293.86c-.42-2.12-2.33-31.17-1.48-35.83A90.38,90.38,0,0,1,551.45,247.22Z" style="fill:#99AAB2;stroke:#263238;stroke-linecap:round;stroke-linejoin:round"></path><path d="M553.45,247.28v14.64c0,6-2.6,19-2.6,19.64" style="fill:none;stroke:#263238;stroke-linecap:round;stroke-linejoin:round"></path><path d="M534.28,245.94s-3.61,14.85-3,22.9a94.53,94.53,0,0,1-.64,18.87c-.42,3.39-12.93,23.11-16.54,26.5s-6.36,3-8.69,1.7a35.26,35.26,0,0,1-4.66-3.18s19.71-26.08,20.35-29.47-.85-23.53-.85-23.53-12.93-16.12-15.9-20.78-5.05-6.22-5.05-6.22l-2-5.61,12.2-3.66s3.73,4.68,4.79,6.37,8.48,9.75,10.6,11S534.28,245.94,534.28,245.94Z" style="fill:#99AAB2;stroke:#263238;stroke-linecap:round;stroke-linejoin:round"></path><path d="M493.33,185.94s1.74-5.44.95-8.48-3.56-7.91-5-7.66-8.69,6.68-8.61,8.26,2.88,8.83,5.06,9.56c.36.13,10.42,37.1,11.63,39.5,1.84,3.68,11.32-1,12.2-3.66C510.17,221.63,493.33,185.94,493.33,185.94Z" style="fill:#fff;stroke:#263238;stroke-linecap:round;stroke-linejoin:round"></path><path d="M492,173.09s-2.58-5.34-3.53-5.23-9.81,6.94-8.79,8.57,2.5,3.76,2.5,3.76,9.09-4.93,9.57-5.22S492,173.09,492,173.09Z" style="fill:#fff;stroke:#263238;stroke-linecap:round;stroke-linejoin:round"></path><path d="M493.74,181.86s1.45-7,.75-8.81a10.62,10.62,0,0,0-3.41-4.42c-1.37-1-7.82,4.82-7.41,6.26s2.5.44,3.15,0,2.12-1.32,2.12-1.32-2.62,5.08-1.88,6.23,3.05,2,3.05,2" style="fill:#fff;stroke:#263238;stroke-linecap:round;stroke-linejoin:round"></path><path d="M532,245.88s-4.41,5.61-4.81,10.63,3,19.24,3,19.24" style="fill:none;stroke:#263238;stroke-linecap:round;stroke-linejoin:round"></path><path d="M528.8,355.52s9.31-9.82,9.56-15.24-4.65-12.14-11.11-11.63-12.65,9.3-18.08,17.83-28.42,64.84-28.93,67.94-6.46,17.05-4.91,23.51,4.91,3.62,7-1.55,1.55-18.08,1.81-19.37,33.33-47.8,37.2-52.45S528.8,355.52,528.8,355.52Z" style="fill:#fff;stroke:#263238;stroke-linecap:round;stroke-linejoin:round"></path><path d="M482.3,436.38a28.43,28.43,0,0,0,1.38-7.6l-.86,1.66-5.68-.78.12-5.6c-1.46,4.91-2.75,10.44-1.93,13.87C476.88,444.39,480.24,441.55,482.3,436.38Z" style="fill:#99AAB2;stroke:#263238;stroke-linecap:round;stroke-linejoin:round"></path><path d="M543.07,349.24s-5.67-12.27-4.18-17.5,8.28-10,14.24-7.46,9,12.86,11.43,22.67,6.2,70.53,5.7,73.63.67,18.22-2.87,23.84-5.8,1.86-6.11-3.7,4.31-17.63,4.48-18.93-16.3-55.94-18.48-61.59S543.07,349.24,543.07,349.24Z" style="fill:#fff;stroke:#263238;stroke-linecap:round;stroke-linejoin:round"></path><path d="M561.28,440.72a28.58,28.58,0,0,1,1.13-7.64l.28,1.85,5.63,1.08,1.68-5.35c-.18,5.12-.73,10.78-2.61,13.76C563.86,450.05,561.59,446.28,561.28,440.72Z" style="fill:#99AAB2;stroke:#263238;stroke-linecap:round;stroke-linejoin:round"></path><path d="M588.69,188.52s-1.23,3.68-3.19,15.45-10.3,23.53-10,28.68,2.45,10.55,8.09,10.06,7.11-5.15,8.83-14.47,1.71-31.87,2.2-34.08,1-3.68,1-3.68Z" style="fill:#fff;stroke:#263238;stroke-linecap:round;stroke-linejoin:round"></path><polygon points="598.17 192.85 586.03 192.85 584.51 168.78 599.69 168.78 598.17 192.85" style="fill:#99AAB2;stroke:#263238;stroke-linecap:round;stroke-linejoin:round"></polygon><polygon points="585.26 180.76 599.49 171.94 599.69 168.78 598.9 168.78 585.05 177.36 585.26 180.76" style="fill:#fff;stroke:#263238;stroke-linecap:round;stroke-linejoin:round"></polygon><polygon points="598.68 184.79 586.02 192.67 586.03 192.85 591.4 192.85 598.45 188.47 598.68 184.79" style="fill:#fff;stroke:#263238;stroke-linecap:round;stroke-linejoin:round"></polygon><polygon points="598.99 179.77 599.23 176.01 585.54 185.14 585.76 188.6 598.99 179.77" style="fill:#fff;stroke:#263238;stroke-linecap:round;stroke-linejoin:round"></polygon><path d="M599.59,169.5H584.66a.87.87,0,0,1-.86-.86h0a.87.87,0,0,1,.86-.86h14.93a.86.86,0,0,1,.85.86h0A.86.86,0,0,1,599.59,169.5Z" style="fill:#fff;stroke:#263238;stroke-linecap:round;stroke-linejoin:round"></path><path d="M602.3,174.8s-3.66-5.76-3.66-3.14a37.21,37.21,0,0,0,.79,6.28A3.14,3.14,0,0,0,602.3,174.8Z" style="fill:#fff;stroke:#263238;stroke-linecap:round;stroke-linejoin:round"></path><path d="M601.79,178.29s-3.67-5.76-3.67-3.14a37.21,37.21,0,0,0,.79,6.28A3.14,3.14,0,0,0,601.79,178.29Z" style="fill:#fff;stroke:#263238;stroke-linecap:round;stroke-linejoin:round"></path><path d="M601.66,180.87s-3.67-5.75-3.67-3.14a37.22,37.22,0,0,0,.79,6.29A3.16,3.16,0,0,0,601.66,180.87Z" style="fill:#fff;stroke:#263238;stroke-linecap:round;stroke-linejoin:round"></path><path d="M601.15,183.59s-3.29-5.17-3.29-2.82a33.29,33.29,0,0,0,.71,5.64A2.82,2.82,0,0,0,601.15,183.59Z" style="fill:#fff;stroke:#263238;stroke-linecap:round;stroke-linejoin:round"></path><path d="M585,180.46s-1.94-3-1.94-4a18.54,18.54,0,0,0-.26-5c-.52-2.85,1.68-2.85,1.68-.78Z" style="fill:#fff;stroke:#263238;stroke-linecap:round;stroke-linejoin:round"></path></g><g id="freepik--desk-2--inject-12"><path d="M613.88,304.07s-2.33,2.11-4,2.11-1.69-3.6-.63-5.71,3.81,1.27,3.81,1.27l.83,2.3-.41-5.26s-2.54-3.17-5.5-1.9-2.53,9.51-.84,11.62,5.07,1.48,7-1.69Z" style="fill:#fff;stroke:#263238;stroke-linecap:round;stroke-linejoin:round"></path><rect x="610.85" y="291.59" width="16.2" height="22.91" style="fill:#fff;stroke:#263238;stroke-linecap:round;stroke-linejoin:round"></rect><rect x="507.48" y="311.76" width="75.66" height="3.12" style="fill:#fff;stroke:#263238;stroke-linecap:round;stroke-linejoin:round"></rect><rect x="433.46" y="239.25" width="91.03" height="61.34" style="fill:#263238;stroke:#263238;stroke-linecap:round;stroke-linejoin:round"></rect><rect x="467.99" y="311.43" width="36.84" height="3.46" style="fill:#ababab;stroke:#263238;stroke-linecap:round;stroke-linejoin:round"></rect><rect x="467.99" y="275.17" width="21.96" height="39.71" style="fill:#ababab;stroke:#263238;stroke-linecap:round;stroke-linejoin:round"></rect><rect x="432.63" y="317.98" width="207.27" height="23.4" style="fill:#fff;stroke:#263238;stroke-linecap:round;stroke-linejoin:round"></rect><rect x="432.63" y="317.98" width="207.27" height="6.22" style="fill:#263238;stroke:#263238;stroke-linecap:round;stroke-linejoin:round"></rect><polygon points="435.17 445.35 431.76 445.35 430.62 317.64 436.3 317.64 435.17 445.35" style="fill:#fff;stroke:#263238;stroke-linecap:round;stroke-linejoin:round"></polygon><polygon points="641.1 445.35 637.69 445.35 636.56 317.64 642.24 317.64 641.1 445.35" style="fill:#fff;stroke:#263238;stroke-linecap:round;stroke-linejoin:round"></polygon><rect x="427.17" y="314.57" width="218.24" height="5.28" style="fill:#fff;stroke:#263238;stroke-linecap:round;stroke-linejoin:round"></rect><line x1="435.01" y1="196.06" x2="448" y2="239.4" style="fill:none;stroke:#263238;stroke-linecap:round;stroke-linejoin:round"></line><path d="M445.4,156.57c4.11,13.72.87,36.11-10.39,39.49s-26.29-13.54-30.4-27.26,1.68-27.58,12.95-31S441.29,142.85,445.4,156.57Z" style="fill:#99AAB2;stroke:#263238;stroke-linecap:round;stroke-linejoin:round"></path><line x1="461.29" y1="196.15" x2="448" y2="239.4" style="fill:none;stroke:#263238;stroke-linecap:round;stroke-linejoin:round"></line><path d="M491.87,169.09c-4.21,13.69-19.34,30.51-30.58,27.06S447,170.28,451.16,156.59s16.73-22,28-18.54S496.07,155.4,491.87,169.09Z" style="fill:#fff;stroke:#263238;stroke-linecap:round;stroke-linejoin:round"></path></g><g id="freepik--character-2--inject-12"><polygon points="319.75 147.89 317.37 114.54 343.9 133.22 319.75 147.89" style="fill:#99AAB2;stroke:#263238;stroke-linecap:round;stroke-linejoin:round"></polygon><polygon points="317.37 114.54 318.01 123.51 319.78 116.23 317.37 114.54" style="fill:#263238"></polygon><polygon points="325.5 120.26 322.84 118.39 318.9 135.99 319.65 146.4 325.5 120.26" style="fill:#263238"></polygon><polygon points="331.66 124.6 329.07 122.78 322.2 146.4 326 144.1 331.66 124.6" style="fill:#263238"></polygon><polygon points="335.52 127.32 328.02 142.87 332.73 140.01 338 129.07 335.52 127.32" style="fill:#263238"></polygon><path d="M288.22,115.72s1.58-4.41.63-7.41-3.94-7.72-5.36-7.41-8.36,7.1-8.2,8.67,3.31,8.68,5.52,9.31S288.22,115.72,288.22,115.72Z" style="fill:#fff;stroke:#263238;stroke-linecap:round;stroke-linejoin:round"></path><path d="M286.33,104.05s-2.84-5.2-3.79-5-9.46,7.41-8.36,9,2.69,3.62,2.69,3.62,8.83-5.36,9.3-5.67S286.33,104.05,286.33,104.05Z" style="fill:#fff;stroke:#263238;stroke-linecap:round;stroke-linejoin:round"></path><path d="M288.53,112.73s1.11-7.1.32-8.83a10.71,10.71,0,0,0-3.63-4.26c-1.42-1-7.57,5.2-7.09,6.62s2.52.32,3.15-.16,2.05-1.41,2.05-1.41-2.36,5.2-1.58,6.3,3.16,1.9,3.16,1.9" style="fill:#fff;stroke:#263238;stroke-linecap:round;stroke-linejoin:round"></path><path d="M290.11,120.77l-1.89-5s-5.52-1.57-7.41,3.16l2.2,5.2A8.88,8.88,0,0,1,290.11,120.77Z" style="fill:#fff;stroke:#263238;stroke-linecap:round;stroke-linejoin:round"></path><path d="M384.73,111.78s-3.34-3.29-3.8-6.39.19-8.68,1.6-9,10.61,2.75,11.16,4.24.8,9.24-.92,10.77S384.73,111.78,384.73,111.78Z" style="fill:#fff;stroke:#263238;stroke-linecap:round;stroke-linejoin:round"></path><path d="M381.35,100.45s.29-5.92,1.21-6.19S394.3,96.82,394,98.72s-.84,4.43-.84,4.43-10.28-1-10.84-1.06S381.35,100.45,381.35,100.45Z" style="fill:#fff;stroke:#263238;stroke-linecap:round;stroke-linejoin:round"></path><path d="M383.14,109.22s-4.08-5.9-4.13-7.81A10.71,10.71,0,0,1,380.42,96c.87-1.47,9.08,1.39,9.27,2.87s-2.13,1.38-2.91,1.23-2.46-.38-2.46-.38,4.4,3.65,4.17,5-2,3.08-2,3.08" style="fill:#fff;stroke:#263238;stroke-linecap:round;stroke-linejoin:round"></path><path d="M392.25,117.23l.49-5.37s-4.28-3.82-8-.39l-.28,5.65A8.84,8.84,0,0,1,392.25,117.23Z" style="fill:#fff;stroke:#263238;stroke-linecap:round;stroke-linejoin:round"></path><path d="M337.1,178.48s-6-2-9.93-3.63-12.94-16-15.62-19.65S295.79,127.08,292.79,123s-8.2-4-10.09-.79,7.73,29.33,14.19,41.47,22.86,39.73,26.18,43.05a26.62,26.62,0,0,1,4.73,6.15s3,29.32,3.62,33.74-1.73,4.1.16,6.94,17.35,7.41,29.8,5.52,16.4-7.1,16.09-10.25a57.07,57.07,0,0,0-1.11-6.47l-.63-47.78s12.46-29.32,15-42.89,3.29-32.88.92-36.51-7.09-1.58-8.2,1S377,142.69,374.16,151,365,170,362,173.44a12.36,12.36,0,0,1-6.46,4.09S344.83,180.53,337.1,178.48Z" style="fill:#fff;stroke:#263238;stroke-linecap:round;stroke-linejoin:round"></path><line x1="327.8" y1="212.86" x2="323.28" y2="188.65" style="fill:none;stroke:#263238;stroke-linecap:round;stroke-linejoin:round"></line><line x1="326.92" y1="208.64" x2="320.1" y2="192.29" style="fill:none;stroke:#263238;stroke-linecap:round;stroke-linejoin:round"></line><line x1="375.73" y1="194.56" x2="373.04" y2="175.7" style="fill:none;stroke:#263238;stroke-linecap:round;stroke-linejoin:round"></line><line x1="374.85" y1="187.51" x2="374.85" y2="171.84" style="fill:none;stroke:#263238;stroke-linecap:round;stroke-linejoin:round"></line><path d="M367.58,222.73s-7.72,15.9-16.35,23.17" style="fill:none;stroke:#263238;stroke-linecap:round;stroke-linejoin:round"></path><path d="M355.32,235.91s-6.37,8.86-9.77,11.36" style="fill:none;stroke:#263238;stroke-linecap:round;stroke-linejoin:round"></path><path d="M339.31,175.64a9.5,9.5,0,0,0-4.42,4.42c-1.26,3-2.05,8.51.63,15.14a86.23,86.23,0,0,1,3.16,8.51s3.31-3.63,5.2-4.73,8-4.57,8-4.57,8.52.15,11.36.63a28.9,28.9,0,0,1,3.78.79s-3.94-11.36-8.52-16.72S347.35,171.39,339.31,175.64Z" style="fill:#fff;stroke:#263238;stroke-linecap:round;stroke-linejoin:round"></path><path d="M348.77,140s-6-2.53-11.2-1.74-11.82,7.89-11.35,15.45,9.15,14.2,11,17.67,1.57,3.46,1.73,9.14a23,23,0,0,0,5.52,13.4c2.05,2.21,9.3,9.31,9.3,9.31s3-14,2.37-16.88-2.21-7.41-2.37-8.83a21.86,21.86,0,0,0-.47-2.68s4.76-.24,4.91-8.44c0-.94,0-3.15,0-4.17C358.1,154.39,356.58,145.87,348.77,140Z" style="fill:#fff;stroke:#263238;stroke-linecap:round;stroke-linejoin:round"></path><path d="M329.69,164.45s3.95-3.17,5.06-5.38c.48-1-1.19-2.69-.8-5.41.22-1.47.9-2.41.8-3.69-.15-1.77-1.8-.74-1.75-2.24.16-4.57,8.52-7.57,11.2-7.09s6.93,3.31,8.35,3.31,6.78-3.63,6-7.26-4.25-1.89-6.3-2.36,2.36-4.1-1.26-7.25a7.22,7.22,0,0,0-9.78.47c-1.42,1.73-1.26,4.73-3.63,4.57s-5.36-1.26-6.94.63-1.26,3.47-1.89,4.58-8,3.62-9,10.56S324.06,158.81,329.69,164.45Z" style="fill:#263238;stroke:#263238;stroke-linecap:round;stroke-linejoin:round"></path><path d="M333.16,161.18s-5.63-4.21-7.52-1.84,2.35,8,4.56,8a4.94,4.94,0,0,0,3.62-2" style="fill:#fff;stroke:#263238;stroke-linecap:round;stroke-linejoin:round"></path><path d="M339.62,154.2S340.41,152,344,152" style="fill:none;stroke:#263238;stroke-linecap:round;stroke-linejoin:round"></path><path d="M338.05,150.26s.94-2.84,4.88-3.32" style="fill:none;stroke:#263238;stroke-linecap:round;stroke-linejoin:round"></path><path d="M351.13,150.1a3.39,3.39,0,0,1,3.47-1.26" style="fill:none;stroke:#263238;stroke-linecap:round;stroke-linejoin:round"></path><path d="M348,145.53a3.85,3.85,0,0,1,4.57-1.58" style="fill:none;stroke:#263238;stroke-linecap:round;stroke-linejoin:round"></path><path d="M342.46,161s2.84,3,8.67,1.42c0,0-1.89,4.25-4.1,4.73S342.46,162.56,342.46,161Z" style="fill:none;stroke:#263238;stroke-linecap:round;stroke-linejoin:round"></path><polyline points="347.31 147.74 354.45 154.43 350.66 157.33 351.33 160.45" style="fill:#fff;stroke:#263238;stroke-linecap:round;stroke-linejoin:round"></polyline><path d="M353.34,174.85s-4.1,1.11-5.83.63l-2.84-.78,10.25,8.2Z" style="fill:#263238;stroke:#263238;stroke-linecap:round;stroke-linejoin:round"></path><path d="M315.56,281.83s-5.71-7.06-7.53-8.66-5.19-.68-6.75,1.37-3.11,6.15-3.89,7.52-5.71,7.29-5.45,10,1,6.15,3.89,5.24,5.53-5.54,9.42-7.59,5.77,0,5.77,0Z" style="fill:#fff;stroke:#263238;stroke-linecap:round;stroke-linejoin:round"></path><path d="M300.53,281.88a61.53,61.53,0,0,1,6.55-9.27,5.43,5.43,0,0,0-5.8,1.93c-1.56,2-3.11,6.15-3.89,7.52s-5.71,7.29-5.45,10a18.91,18.91,0,0,0,.28,1.92C294.81,287.66,297.16,287.84,300.53,281.88Z" style="fill:#fff;stroke:#263238;stroke-linecap:round;stroke-linejoin:round"></path><path d="M356.91,342.69a124.49,124.49,0,0,0-14.32-15c-7.27-6.13-32.49-39.07-32.49-39.07l5-8.41s21.13,21.81,28.4,26.58a175.16,175.16,0,0,1,15.9,11.82c1.82,1.59,6.37,10,5.46,14.54S362.13,343.37,356.91,342.69Z" style="fill:#263238;stroke:#263238;stroke-linecap:round;stroke-linejoin:round"></path><path d="M288.29,288.16s-6.59-4.54-9.09-7.72-6.13-2.73-7.72-.68-6.36,11.36-8.41,15.9-2.27,12.5-1.36,14.31,2.73-.45,3.41-2,8.56-8.92,9.7-10.06a19.8,19.8,0,0,1,3.86-2.5l4.54,2.5Z" style="fill:#fff;stroke:#263238;stroke-linecap:round;stroke-linejoin:round"></path><path d="M262.14,310.5c0-2,.41-5.88,2.46-11.84,2-5.75,8.3-15.83,11.27-20.42a4.42,4.42,0,0,0-4.39,1.52c-1.59,2-6.36,11.36-8.41,15.9s-2.27,12.5-1.36,14.31A1.4,1.4,0,0,0,262.14,310.5Z" style="fill:#fff;stroke:#263238;stroke-linecap:round;stroke-linejoin:round"></path><path d="M355.54,328.6,353,295.43l-3.18,2.5s-10.68,49.3-12.72,50.89-8.18-3.4-13.63-6.58-40.9-42.72-42-43.63,5.22-13.17,6.13-12.72,32.26,31.58,32.26,31.58,3.86-28.4,5.68-40.44a161.28,161.28,0,0,1,6.36-25s18.86,6.81,29.31,4.54,16.25-7.77,16.25-7.77-1.25,11.86-.57,35.49-4.77,48.39-7,56.34-3.41,8.64-5.68,8.18-7.5-7-9.32-9.31" style="fill:#263238;stroke:#263238;stroke-linecap:round;stroke-linejoin:round"></path></g><g id="freepik--desk-1--inject-12"><rect x="164.56" y="327.46" width="5.42" height="21.68" style="fill:#263238;stroke:#263238;stroke-linecap:round;stroke-linejoin:round"></rect><rect x="248.23" y="327.46" width="5.42" height="21.68" style="fill:#263238;stroke:#263238;stroke-linecap:round;stroke-linejoin:round"></rect><path d="M176.42,256.64h63.5a7.21,7.21,0,0,1,7.21,7.21v94.62a0,0,0,0,1,0,0H169.22a0,0,0,0,1,0,0V263.85A7.21,7.21,0,0,1,176.42,256.64Z" style="fill:#ababab;stroke:#263238;stroke-linecap:round;stroke-linejoin:round"></path><circle cx="172.69" cy="441.28" r="4.06" style="fill:#fff;stroke:#263238;stroke-linecap:round;stroke-linejoin:round"></circle><path d="M212.32,441.28a4.07,4.07,0,1,0-4.06,4.07A4.06,4.06,0,0,0,212.32,441.28Z" style="fill:#fff;stroke:#263238;stroke-linecap:round;stroke-linejoin:round"></path><path d="M247.89,441.28a4.07,4.07,0,1,0-4.07,4.07A4.07,4.07,0,0,0,247.89,441.28Z" style="fill:#fff;stroke:#263238;stroke-linecap:round;stroke-linejoin:round"></path><polygon points="211.93 420.87 211.93 353.89 204.79 353.89 204.79 420.44 204.53 420.62 167.61 435.53 167.61 439.93 173.37 439.93 173.37 436.88 205.36 432.18 205.95 439.93 210.22 439.93 210.81 432.23 242.47 436.88 242.47 439.93 248.23 439.93 248.23 435.53 211.93 420.87" style="fill:#263238;stroke:#263238;stroke-linecap:round;stroke-linejoin:round"></polygon><rect x="196.84" y="361.3" width="22.67" height="8.03" style="fill:#263238;stroke:#263238;stroke-linecap:round;stroke-linejoin:round"></rect><rect x="162.84" y="343.83" width="90.67" height="17.94" rx="2.74" style="fill:#ababab;stroke:#263238;stroke-linecap:round;stroke-linejoin:round"></rect><rect x="158.12" y="314.93" width="11.18" height="16.6" rx="2.27" style="fill:#ababab;stroke:#263238;stroke-linecap:round;stroke-linejoin:round"></rect><rect x="246.7" y="314.93" width="11.18" height="16.6" rx="2.27" style="fill:#ababab;stroke:#263238;stroke-linecap:round;stroke-linejoin:round"></rect><rect x="173.33" y="311.76" width="75.66" height="3.12" style="fill:#fff;stroke:#263238;stroke-linecap:round;stroke-linejoin:round"></rect><rect x="99.31" y="239.25" width="91.03" height="61.34" style="fill:#263238;stroke:#263238;stroke-linecap:round;stroke-linejoin:round"></rect><rect x="133.84" y="311.43" width="36.84" height="3.46" style="fill:#ababab;stroke:#263238;stroke-linecap:round;stroke-linejoin:round"></rect><rect x="133.84" y="275.17" width="21.96" height="39.71" style="fill:#ababab;stroke:#263238;stroke-linecap:round;stroke-linejoin:round"></rect><rect x="106.1" y="317.98" width="207.27" height="23.4" style="fill:#fff;stroke:#263238;stroke-linecap:round;stroke-linejoin:round"></rect><rect x="106.1" y="317.98" width="207.27" height="6.22" style="fill:#263238;stroke:#263238;stroke-linecap:round;stroke-linejoin:round"></rect><polygon points="108.64 445.35 105.23 445.35 104.09 317.64 109.78 317.64 108.64 445.35" style="fill:#fff;stroke:#263238;stroke-linecap:round;stroke-linejoin:round"></polygon><polygon points="314.58 445.35 311.17 445.35 310.03 317.64 315.71 317.64 314.58 445.35" style="fill:#fff;stroke:#263238;stroke-linecap:round;stroke-linejoin:round"></polygon><rect x="100.65" y="314.57" width="218.24" height="5.28" style="fill:#fff;stroke:#263238;stroke-linecap:round;stroke-linejoin:round"></rect><line x1="96.34" y1="196.06" x2="109.33" y2="239.4" style="fill:none;stroke:#263238;stroke-linecap:round;stroke-linejoin:round"></line><path d="M106.73,156.57c4.11,13.72.87,36.11-10.39,39.49s-26.29-13.54-30.4-27.26,1.68-27.58,13-31S102.62,142.85,106.73,156.57Z" style="fill:#99AAB2;stroke:#263238;stroke-linecap:round;stroke-linejoin:round"></path><line x1="122.61" y1="196.15" x2="109.33" y2="239.4" style="fill:none;stroke:#263238;stroke-linecap:round;stroke-linejoin:round"></line><path d="M153.2,169.09c-4.21,13.69-19.34,30.51-30.59,27.06s-14.33-25.87-10.12-39.56,16.73-22,28-18.54S157.4,155.4,153.2,169.09Z" style="fill:#fff;stroke:#263238;stroke-linecap:round;stroke-linejoin:round"></path></g><g id="freepik--character-1--inject-12"><path d="M218.25,209.33S221,244.86,222.11,248s2.87,12.3,2.87,12.3-9.16,2.29-10.59,2.58-4.48-.88-4.48-.88-2.11-22-1.25-34,8-23.75,8-23.75Z" style="fill:#fff;stroke:#263238;stroke-miterlimit:10"></path><path d="M236.42,314.56s-3.45.35-4.31-.26,0-1,.43-1l2-.17s-3.33-1.56-3-2,1.56-.35,1.56-.35l.69-.25s-2.29-1.35-1.9-1.61,2.64.22,2.64.22l-.35-6.06a3.16,3.16,0,0,1,2.43,1.17c1,1.26.86,4.2.69,6.32A16.82,16.82,0,0,1,236.42,314.56Z" style="fill:#fff;stroke:#263238;stroke-miterlimit:10"></path><path d="M222.42,257.79l9.05,34.33,6.95,6.89s1.49,7.64,1.39,9.1-3.26,9.85-4.44,7.41c-.44-.92,1.39-7.17,1.16-8.63a5.58,5.58,0,0,0-1.59-3.41s-3.67.5-6.23-1.48-3.64-6.46-3.64-6.46l-14.89-32.72Z" style="fill:#fff;stroke:#263238;stroke-miterlimit:10"></path><path d="M234.58,301.44l.36,2s1.9,9.81.2,10-3.13-3.86-3.13-3.86l-.76-3.65s-3.6-3.29-4.43-5.2a72.21,72.21,0,0,1-2.12-7.52" style="fill:#fff;stroke:#263238;stroke-miterlimit:10"></path><polygon points="211.53 254.59 224.12 251.44 224.98 260.31 212.1 262.89 211.53 254.59" style="fill:#fff;stroke:#263238;stroke-miterlimit:10"></polygon><path d="M212.31,240.29c-.17.63,1.18,29.92,1.33,33.2l-59-1.62-.35-25.54s-1.82-30-1.84-36.53,4.05-15.62,8.26-18.18,19-10.17,19-10.17l20.71-1s12.76,10.16,14,11.56,6.08,12.93,4.43,20.89S212.49,239.62,212.31,240.29Z" style="fill:#fff;stroke:#263238;stroke-miterlimit:10"></path><path d="M233.57,430.38l8,6.53s10.68,4.15,11,5.64-1.49,3-3,3H217.45a2.9,2.9,0,0,1-2.89-2.66c-.26-3-.35-7.79,1.2-10.7,2.38-4.45,17.81-1.78,17.81-1.78" style="fill:#fff;stroke:#263238;stroke-linecap:round;stroke-linejoin:round"></path><path d="M251.68,444.65c-6.77,0-16.67-1.23-20.41-1.23s-12.69-1.22-16.8-1.82q0,.67.09,1.26a2.9,2.9,0,0,0,2.89,2.66H249.6A3.32,3.32,0,0,0,251.68,444.65Z" style="fill:#fff;stroke:#263238;stroke-miterlimit:10"></path><path d="M231.09,423.7l-.47-85.31-17-68.46-14.72,2.13a22.68,22.68,0,0,1-5.46.14l-39.25-3.77-1,7.1s-.9,19.74,1.42,24.84,7.41,44,7.41,44L146.61,421l-1.48,8.32,20.18.89.3-5.05-2.08-1.48v-4.75l-.11,0c6.07-18.56,22.86-69.75,23.62-71.66.93-2.31,5.59-39.93,5.59-39.93l15.27,39.47L216,421.1l-.26,11.06,17.81-1.78v-4.75Z" style="fill:#263238;stroke:#263238;stroke-linecap:round;stroke-linejoin:round"></path><path d="M165.31,430.16l3,4.75L181,442.62a6,6,0,0,1,0,2.67s-11.28,1.19-13.35.89a75.9,75.9,0,0,1-8.91-1.78c-1.78-.59-9.2-2.37-11.87-2.37s-4.75-4.16-4.16-6.53a47.53,47.53,0,0,1,2.38-6.23Z" style="fill:#fff;stroke:#263238;stroke-linecap:round;stroke-linejoin:round"></path><path d="M181.17,443.84c-2.79.23-8.27.64-11.7.64-4.75,0-7.92-1.32-12.15-2.64-2.86-.9-10.21-3.49-14.65-5.07.19,2.35,2,5.26,4.24,5.26,2.67,0,10.09,1.78,11.87,2.37a75.9,75.9,0,0,0,8.91,1.78c2.07.3,13.35-.89,13.35-.89A8.48,8.48,0,0,0,181.17,443.84Z" style="fill:#fff;stroke:#263238;stroke-miterlimit:10"></path><polygon points="202.8 189.8 200.39 201.17 209.91 262.01 206.28 270.24 198.86 261.7 197.13 201.4 190.72 193.99 197.96 182.89 202.8 189.8" style="fill:#263238;stroke:#263238;stroke-miterlimit:10"></polygon><polygon points="206.12 186.8 208.18 195.3 201.74 191.54 206.12 186.8" style="fill:#fff;stroke:#263238;stroke-miterlimit:10"></polygon><polygon points="198.29 196.28 206.12 186.8 200.4 180.42 198.29 196.28" style="fill:#fff;stroke:#263238;stroke-miterlimit:10"></polygon><path d="M203.89,139.68s7.16,9,6.74,10.36a22.51,22.51,0,0,0-.57,4s5.84,4.47,5.51,5.64-3.65,3.59-3.65,3.59.45,15-1.26,16-5.49,0-5.49,0l-6.88,17L192,187.4l-9.88-11.06.69-4.08-.8-4.18a17.42,17.42,0,0,1-7.09-8.79c-2-5.86-.55-17.1-.18-18.14s11.75-6.21,16.12-8.68,6-2.4,6.6-1.24.08-3.9,2.32-3.07,3.53,3.39,3.25,4.28,4.1-2.93,4.71-.83S207,138.38,203.89,139.68Z" style="fill:#fff;stroke:#263238;stroke-miterlimit:10"></path><path d="M191.5,175.1c-2.1-2.21-4.42-17.19-5.36-18.12s-4.37-1.69-5.9.9.07,6.26,2,7.72a20.51,20.51,0,0,0,3.29,2.13l-3.7.23a17.32,17.32,0,0,1-6.9-8.67c-2-5.86-.55-17.1-.18-18.14s11.75-6.21,16.12-8.68,6-2.4,6.6-1.24.08-3.9,2.32-3.07,3.53,3.39,3.25,4.28,4.1-2.93,4.71-.83-.73,6.77-3.83,8.07c0,0-11.08,2.39-11,4s4.19,3.87,3.68,5.36-6.05,6.83-6.05,6.83l2.55,10.24s.37.83,1.93-.29,5.21-6.06,8.16-5.57,8.78,3.08,8.78,3.08.45,15-1.26,16-5.49,0-5.49,0S193.61,177.3,191.5,175.1Z" style="fill:#263238;stroke:#263238;stroke-miterlimit:10"></path><path d="M205.4,155.1c.23.78.66,1.34,1,1.26s.38-.8.15-1.59-.66-1.34-1-1.26S205.17,154.31,205.4,155.1Z" style="fill:#263238"></path><path d="M208,151.48a3.22,3.22,0,0,0-4.88-.2" style="fill:none;stroke:#263238;stroke-miterlimit:10"></path><path d="M208.77,165.83,204,163.07s-.15,5.53,1.73,6.46S208.77,165.83,208.77,165.83Z" style="fill:#fff;stroke:#263238;stroke-miterlimit:10"></path><polygon points="196.49 190.52 198.29 196.28 192.59 192.31 196.49 190.52" style="fill:#fff;stroke:#263238;stroke-miterlimit:10"></polygon><polygon points="182.16 174.72 196.49 190.52 190.04 200.14 177.5 181.28 182.16 174.72" style="fill:#fff;stroke:#263238;stroke-miterlimit:10"></polygon><polygon points="235.34 231.7 223.28 233.12 218.97 209.38 234.04 207.62 235.34 231.7" style="fill:#99AAB2;stroke:#263238;stroke-linecap:round;stroke-linejoin:round"></polygon><polygon points="221.12 221.19 234.22 210.78 234.04 207.62 233.26 207.71 220.51 217.84 221.12 221.19" style="fill:#fff;stroke:#263238;stroke-linecap:round;stroke-linejoin:round"></polygon><polygon points="234.91 223.64 223.25 232.94 223.28 233.12 228.62 232.49 235.11 227.32 234.91 223.64" style="fill:#fff;stroke:#263238;stroke-linecap:round;stroke-linejoin:round"></polygon><polygon points="234.64 218.62 234.44 214.85 221.9 225.51 222.52 228.92 234.64 218.62" style="fill:#fff;stroke:#263238;stroke-linecap:round;stroke-linejoin:round"></polygon><path d="M234,208.34l-14.83,1.74a.85.85,0,0,1-.95-.75h0a.86.86,0,0,1,.75-1l14.83-1.74a.86.86,0,0,1,.95.75h0A.86.86,0,0,1,234,208.34Z" style="fill:#fff;stroke:#263238;stroke-linecap:round;stroke-linejoin:round"></path><path d="M185.33,242,212.81,239s1.92-6.76,1.66-11.71,1.66-9.71,2.52-10.08,10.22-4.78,11.44-4.12,3.4,1.7,2.8,3.19-4.42.31-4.42.31-4.65,2.84-5.13,3.07,5.24-1.32,6.29-.86,7.69.82,8.45,2.36-.37,2-.37,2,1.24,2.31-.47,3.06-5.7.37-6.34.4-4.8,3.47-5.38,3.78,5.11-1.89,6.1-1.7,4.73,1.09,4.84,1.83-2.52,1.59-3.44,1.68-3.92.91-3.92.91l-3.58,4s-1.32,5.26-2.92,6.75a38,38,0,0,1-3.55,2.77c-.4.32-20.82,5.75-22.14,6.18s-12.31,4.67-12.31,4.67Z" style="fill:#fff;stroke:#263238;stroke-miterlimit:10"></path><path d="M220.79,225.28s5.15-3.25,6.59-3.12,8.67,1,8.67,1" style="fill:none;stroke:#263238;stroke-miterlimit:10"></path><line x1="221.68" y1="219.7" x2="219.24" y2="220.38" style="fill:none;stroke:#263238;stroke-miterlimit:10"></line><path d="M182.48,210.85a14.56,14.56,0,0,1,1,8.56c-1,4.47-2.94,21.65-2.94,21.65l-7.31,17.38s-14.94-1.33-16.5-2.21-1-5.2-.56-7.54-1.58-28.31-1-35.28,1-9.44,4-12.75" style="fill:#fff;stroke:#263238;stroke-miterlimit:10"></path><path d="M173.77,239.68s-9.23,3-9.61,3.1" style="fill:none;stroke:#263238;stroke-miterlimit:10"></path><path d="M161,236.73s12.83,1.4,13.7,1.85" style="fill:none;stroke:#263238;stroke-miterlimit:10"></path><line x1="159.78" y1="227.39" x2="176.75" y2="239.05" style="fill:none;stroke:#263238;stroke-miterlimit:10"></line><path d="M176.75,239.05s10.12.14,10.27,2.35-2,18-2.56,18.29-11.57.73-12.49-.18,1.53-18.94,1.8-19.83S176.75,239.05,176.75,239.05Z" style="fill:#fff;stroke:#263238;stroke-miterlimit:10"></path></g></svg>
