<svg xmlns="http://www.w3.org/2000/svg" viewBox="0 0 500 500"><g id="freepik--Character--inject-66"><g><g><path d="M339.77,462.07h-95.84c-4.16-16.36-10.58-41.54-16.17-63.47,0-.01,0-.03-.01-.04-.34-1.35-.68-2.68-1.01-3.99-.21-.82-.42-1.63-.62-2.42-5.37-21.08-9.62-37.76-9.72-38.14-.06-.24-.11-.42-.15-.56-.06-.2-.08-.31-.08-.31h92.53l31.06,108.95Z" style="fill:#37474f;"></path><g><g><path d="M305.72,353.08v.04c0,.06-.01,.17-.01,.31,0,1.09-.01,2.18-.03,3.27-.04,2.77-.17,5.54-.35,8.31-.7,11.14-2.3,22.19-4.24,32.27-3.84,20.01-8.95,36.16-10.74,41.53-.39,1.18-.63,1.84-.65,1.91-.01,.01-3.21,1.59-7.38,3.65-.19,.1-.39,.2-.59,.3-4.8,2.38-10.74,5.33-14.61,7.26-2.05,1.02-3.53,1.76-3.95,1.99-.06,.02-.1,.04-.11,.06-.02,.01-.17,3.29-.37,8.1h-99.94c2-16.95,2.27-19.19,2.27-19.19-.59-3.27-3.2-11.7-2.27-21.49,2.05-21.52,15.26-64.74,16.45-67.32,.28-.63,.45-.95,.45-.95h25.28l59.89-.03h40.91Z" style="fill:#37474f;"></path><path d="M263.16,453.69v.22c.03,2.72-.08,5.44-.11,8.16h-1.01c.22-2.73,.4-5.48,.73-8.2,.02-.25,.04-.48,.08-.73,.02-.19,.29-.19,.3,.01,0,.18,.01,.36,.01,.54Z" style="fill:#263238;"></path></g><g><path d="M251.17,458.93c4.25-2.95,8.83-5.42,13.33-7.96,4.6-2.6,9.27-5.09,14.06-7.32,9.35-4.36,19.23-7.5,29.07-10.55,.25-.08,.42,.33,.17,.43-9.48,4.07-18.67,8.74-28.1,12.92-4.74,2.1-9.52,4.12-14.27,6.21-4.75,2.09-9.38,4.46-14.16,6.46-.13,.05-.22-.11-.1-.18Z" style="fill:#263238;"></path><path d="M277.11,412.54c.12-4.65,.45-9.29,.68-13.94,.54-10.96,.97-21.99,1.99-32.92,.04-.43,.67-.43,.68,.02,.14,8.48-.19,16.99-.36,25.47-.09,4.24-.21,8.49-.33,12.73-.11,4.04-.38,8.13-.08,12.16,.23,3.06,.9,9,4.89,9.37,3.76,.35,5.82-3.71,6.76-6.68,2.38-7.55,3.23-15.7,4-23.55,.46-4.65,.92-9.29,1.2-13.95,.28-4.71,.65-11.65,.39-16.35-.02-.3,.42-.28,.47,.01,.74,4.03,.77,12.22,.67,17.03-.91,43.26-7.74,45.73-11.34,46.43-.46,.09-.9,.13-1.34,.14-.04,.98-.18,1.97-.25,2.95-.11,1.54-.3,3.06-.5,4.59-.2,1.49-.54,2.99-.94,4.44-.39,1.44-.78,2.96-1.56,4.25-.13,.21-.42,.09-.43-.13-.11-1.46,.17-2.94,.37-4.38,.2-1.49,.41-3,.72-4.48,.3-1.45,.57-2.91,.87-4.36,.2-.97,.34-1.98,.52-2.96-2.31-.36-4.24-1.88-5.33-4.19-1.69-3.58-1.83-7.8-1.73-11.68Z" style="fill:#263238;"></path><path d="M189.75,404.33c6.04,.42,12,1.2,18.06,.48,5.7-.68,11.16-2.63,15.72-6.16,9.96-7.72,14.32-20.36,17.02-32.22,.06-.27,.45-.21,.42,.06-1.13,10.28-3.34,20.91-9.98,29.19-2.89,3.61-6.44,6.65-10.59,8.73-4.31,2.16-9.22,2.89-14,2.88-5.6-.01-11.34-.85-16.76-2.26-.43-.11-.36-.73,.1-.7Z" style="fill:#263238;"></path><path d="M321.53,401.93c-1.68-.19-3.33-.05-5.03-1.29-1.6-1.17-3.16-3.47-4.49-7.14-2.91-8.02-4.34-19.99-5.28-31.08-.02-.25-.13-.24-.12,.02,.48,9.51,1.28,19.44,3.27,27.64,.87,3.58,1.91,6.7,3.1,8.99,1.24,2.38,2.62,3.53,3.96,3.98,1.56,.53,3.15,.31,4.64-.46,.12-.06,.09-.63-.04-.65Z" style="fill:#263238;"></path><path d="M188.68,356.07c-3.24,17.77-7.09,35.8-10.64,53.52-.9,5.3-2.49,10.54-2.17,15.93,.38,5.43,1.39,10.84,2.57,16.16-.57,3.42-1.13,6.85-1.74,10.26-.6,3.38-1.17,6.76-1.83,10.13,.31-3.42,.7-6.83,1.07-10.24,.35-3.41,.77-6.82,1.17-10.23-1.23-3.97-2.61-10.85-3.05-15.96-.16-1.85-.16-3.8,.13-5.64,1.08-7.27,2.6-14.38,4.12-21.51,3.1-14.23,6.51-28.39,10.37-42.44h0Z" style="fill:#263238;"></path></g></g></g><g><path d="M278.09,221.84c41.78,37.84,71.49,70.45,71.09,85.27-.89,33.22-18.4,40.39-21.52,39.33-32.95-11.18-53.89-73.9-67.74-111.79-13.75-37.62,6.2-23.65,18.17-12.81Z" style="fill: rgb(235, 148, 129);"></path><g><path d="M337.39,275.75l-52.64,28.11s-21.44-46.78-28.74-74.75c-7.3-27.97,3.91-27.07,28.42-5.18,24.51,21.89,52.96,51.83,52.96,51.83Z" style="fill:#334155;"></path><path d="M272.62,240.53c-1.66,0-3.02,1.36-3.02,3.02s1.36,3.05,3.02,3.05,3.05-1.38,3.05-3.05-1.35-3.02-3.05-3.02Zm0,5.55c-1.37,0-2.5-1.13-2.5-2.53s1.13-2.5,2.5-2.5,2.53,1.13,2.53,2.5-1.13,2.53-2.53,2.53Zm33.57-1.78c-.32,1.03-1.28,1.78-2.42,1.78-1.37,0-2.5-1.13-2.5-2.53,0-1.09,.71-2.02,1.69-2.36-.13-.14-.27-.27-.41-.4-1.06,.47-1.8,1.53-1.8,2.76,0,1.67,1.36,3.05,3.02,3.05,1.29,0,2.37-.79,2.82-1.9l-.4-.4Zm-49.14-28.61c-1.66,0-3.02,1.36-3.02,3.02s1.36,3.05,3.02,3.05,3.05-1.38,3.05-3.05-1.35-3.02-3.05-3.02Zm0,5.55c-1.37,0-2.5-1.13-2.5-2.53s1.13-2.5,2.5-2.5,2.53,1.13,2.53,2.5-1.13,2.53-2.53,2.53Zm46.72,69.41c-1.66,0-3.02,1.36-3.02,3.02,0,.52,.13,1.01,.37,1.45l.45-.24c-.19-.36-.3-.77-.3-1.21,0-1.37,1.13-2.5,2.5-2.5,.97,0,1.82,.55,2.24,1.34l.46-.25c-.51-.95-1.52-1.61-2.7-1.61Zm-15.58-24.84c-1.66,0-3.02,1.36-3.02,3.02s1.36,3.05,3.02,3.05,3.05-1.38,3.05-3.05-1.35-3.02-3.05-3.02Zm0,5.55c-1.37,0-2.5-1.13-2.5-2.53s1.13-2.5,2.5-2.5,2.53,1.13,2.53,2.5-1.13,2.53-2.53,2.53Zm31.15-5.55c-1.66,0-3.02,1.36-3.02,3.02s1.36,3.05,3.02,3.05,3.05-1.38,3.05-3.05-1.35-3.02-3.05-3.02Zm0,5.55c-1.37,0-2.5-1.13-2.5-2.53s1.13-2.5,2.5-2.5,2.53,1.13,2.53,2.5-1.13,2.53-2.53,2.53Z" style="fill:#fff;"></path><path d="M326.66,267.64c-20.32,13.52-39.98,22.27-43.92,24.5-.19,.11-.34-.21-.14-.3,3.98-1.99,25.6-15.22,43.9-24.53,.21-.11,.35,.2,.16,.33Z" style="fill:#263238;"></path><path d="M325.88,282.5l-41.12,21.36s-21.44-46.78-28.75-74.76c-2.68-10.31-2.86-16.69-.78-19.55l70.66,72.95Z" style="opacity:.1;"></path></g></g><g><path d="M310.16,354.48l-6.85-43.05s13.43-16.87,4.62-35.36c-4.45-9.36-26.95-55.39-43.12-66.85-13.28-9.41-35.82-4.33-43.33,8.66-17,29.39-33.89,63.94-43.71,136.64l132.39-.04Z" style="fill:#334155;"></path><path d="M210.33,240.53c-.41,0-.8,.08-1.15,.23-1.1,.46-1.87,1.54-1.87,2.79,0,.29,.04,.57,.13,.84h0c.36,1.27,1.52,2.21,2.89,2.21,1.7,0,3.05-1.38,3.05-3.05s-1.35-3.02-3.05-3.02Zm0,5.55c-1.37,0-2.49-1.12-2.5-2.52h0c0-.78,.36-1.48,.92-1.93t.01-.01c.42-.36,.97-.57,1.57-.57,1.4,0,2.53,1.13,2.53,2.5s-1.13,2.53-2.53,2.53Zm31.15-5.55c-1.66,0-3.02,1.36-3.02,3.02s1.36,3.05,3.02,3.05,3.05-1.38,3.05-3.05-1.35-3.02-3.05-3.02Zm0,5.55c-1.37,0-2.5-1.13-2.5-2.53s1.13-2.5,2.5-2.5,2.53,1.13,2.53,2.5-1.13,2.53-2.53,2.53Zm31.14-5.55c-1.66,0-3.02,1.36-3.02,3.02s1.36,3.05,3.02,3.05,3.05-1.38,3.05-3.05-1.35-3.02-3.05-3.02Zm0,5.55c-1.37,0-2.5-1.13-2.5-2.53s1.13-2.5,2.5-2.5,2.53,1.13,2.53,2.5-1.13,2.53-2.53,2.53Zm-46.71-30.39c-1.66,0-3.02,1.36-3.02,3.02s1.36,3.05,3.02,3.05,3.05-1.38,3.05-3.05-1.35-3.02-3.05-3.02Zm0,5.55c-1.37,0-2.5-1.13-2.5-2.53s1.13-2.5,2.5-2.5,2.53,1.13,2.53,2.5-1.13,2.53-2.53,2.53Zm31.14-5.55c-1.66,0-3.02,1.36-3.02,3.02s1.36,3.05,3.02,3.05,3.05-1.38,3.05-3.05-1.35-3.02-3.05-3.02Zm0,5.55c-1.37,0-2.5-1.13-2.5-2.53s1.13-2.5,2.5-2.5,2.53,1.13,2.53,2.5-1.13,2.53-2.53,2.53Zm-46.72,69.41c-1.66,0-3.02,1.36-3.02,3.02s1.36,3.05,3.02,3.05,3.05-1.38,3.05-3.05-1.35-3.02-3.05-3.02Zm0,5.55c-1.37,0-2.5-1.13-2.5-2.53s1.13-2.5,2.5-2.5,2.53,1.13,2.53,2.5-1.13,2.53-2.53,2.53Zm31.15-5.55c-1.66,0-3.02,1.36-3.02,3.02s1.36,3.05,3.02,3.05,3.05-1.38,3.05-3.05-1.35-3.02-3.05-3.02Zm0,5.55c-1.37,0-2.5-1.13-2.5-2.53s1.13-2.5,2.5-2.5,2.53,1.13,2.53,2.5-1.13,2.53-2.53,2.53Zm31.14-5.55c-1.66,0-3.02,1.36-3.02,3.02s1.36,3.05,3.02,3.05,3.05-1.38,3.05-3.05-1.35-3.02-3.05-3.02Zm0,5.55c-1.37,0-2.5-1.13-2.5-2.53s1.13-2.5,2.5-2.5,2.53,1.13,2.53,2.5-1.13,2.53-2.53,2.53Zm31.15-5.55c-1.66,0-3.02,1.36-3.02,3.02s1.36,3.05,3.02,3.05,3.05-1.38,3.05-3.05-1.35-3.02-3.05-3.02Zm0,5.55c-1.37,0-2.5-1.13-2.5-2.53s1.13-2.5,2.5-2.5,2.53,1.13,2.53,2.5-1.13,2.53-2.53,2.53Zm-106.1-28.27c-.13,.35-.26,.71-.39,1.07h0c-.03,.49-.19,.92-.45,1.29h-.01c-.13,.37-.25,.73-.38,1.09,.83-.55,1.37-1.49,1.37-2.55,0-.31-.05-.61-.14-.9Zm28.24-2.12c-1.66,0-3.02,1.36-3.02,3.02s1.36,3.05,3.02,3.05,3.05-1.38,3.05-3.05-1.35-3.02-3.05-3.02Zm0,5.55c-1.37,0-2.5-1.13-2.5-2.53s1.13-2.5,2.5-2.5,2.53,1.13,2.53,2.5-1.13,2.53-2.53,2.53Zm31.14-5.55c-1.66,0-3.02,1.36-3.02,3.02s1.36,3.05,3.02,3.05,3.05-1.38,3.05-3.05-1.35-3.02-3.05-3.02Zm0,5.55c-1.37,0-2.5-1.13-2.5-2.53s1.13-2.5,2.5-2.5,2.53,1.13,2.53,2.5-1.13,2.53-2.53,2.53Zm31.14-5.55c-1.66,0-3.02,1.36-3.02,3.02s1.36,3.05,3.02,3.05,3.05-1.38,3.05-3.05-1.35-3.02-3.05-3.02Zm0,5.55c-1.37,0-2.5-1.13-2.5-2.53s1.13-2.5,2.5-2.5,2.53,1.13,2.53,2.5-1.13,2.53-2.53,2.53Zm-108.42,69.46c-.02,.17-.05,.34-.08,.52,1.16,.23,2.03,1.25,2.03,2.45,0,1.4-1.13,2.53-2.53,2.53-.08,0-.16,0-.25-.01h0c-.02,.17-.05,.34-.07,.51,.11,.01,.22,.02,.33,.02,1.7,0,3.05-1.38,3.05-3.05,0-1.47-1.05-2.7-2.47-2.97Zm30.56-.05c-1.66,0-3.02,1.36-3.02,3.02s1.36,3.05,3.02,3.05,3.05-1.38,3.05-3.05-1.35-3.02-3.05-3.02Zm0,5.55c-1.37,0-2.5-1.13-2.5-2.53s1.13-2.5,2.5-2.5,2.53,1.13,2.53,2.5-1.13,2.53-2.53,2.53Zm31.15-5.55c-1.66,0-3.02,1.36-3.02,3.02s1.36,3.05,3.02,3.05,3.05-1.38,3.05-3.05-1.35-3.02-3.05-3.02Zm0,5.55c-1.37,0-2.5-1.13-2.5-2.53s1.13-2.5,2.5-2.5,2.53,1.13,2.53,2.5-1.13,2.53-2.53,2.53Zm31.14-5.55c-1.66,0-3.02,1.36-3.02,3.02s1.36,3.05,3.02,3.05,3.05-1.38,3.05-3.05-1.35-3.02-3.05-3.02Zm0,5.55c-1.37,0-2.5-1.13-2.5-2.53s1.13-2.5,2.5-2.5,2.53,1.13,2.53,2.5-1.13,2.53-2.53,2.53Zm31.15-5.55c-1.66,0-3.02,1.36-3.02,3.02s1.36,3.05,3.02,3.05,3.05-1.38,3.05-3.05-1.35-3.02-3.05-3.02Zm0,5.55c-1.37,0-2.5-1.13-2.5-2.53s1.13-2.5,2.5-2.5,2.53,1.13,2.53,2.5-1.13,2.53-2.53,2.53Zm-109.01-30.39c-1.66,0-3.02,1.36-3.02,3.02s1.36,3.05,3.02,3.05,3.05-1.38,3.05-3.05-1.35-3.02-3.05-3.02Zm0,5.55c-1.37,0-2.5-1.13-2.5-2.53s1.13-2.5,2.5-2.5,2.53,1.13,2.53,2.5-1.13,2.53-2.53,2.53Zm31.15-5.55c-1.66,0-3.02,1.36-3.02,3.02s1.36,3.05,3.02,3.05,3.05-1.38,3.05-3.05-1.35-3.02-3.05-3.02Zm0,5.55c-1.37,0-2.5-1.13-2.5-2.53s1.13-2.5,2.5-2.5,2.53,1.13,2.53,2.5-1.13,2.53-2.53,2.53Zm31.14-5.55c-1.66,0-3.02,1.36-3.02,3.02s1.36,3.05,3.02,3.05,3.05-1.38,3.05-3.05-1.35-3.02-3.05-3.02Zm0,5.55c-1.37,0-2.5-1.13-2.5-2.53s1.13-2.5,2.5-2.5,2.53,1.13,2.53,2.5-1.13,2.53-2.53,2.53Zm31.14-5.55c-1.66,0-3.02,1.36-3.02,3.02s1.36,3.05,3.02,3.05,3.05-1.38,3.05-3.05-1.35-3.02-3.05-3.02Zm0,5.55c-1.37,0-2.5-1.13-2.5-2.53s1.13-2.5,2.5-2.5,2.53,1.13,2.53,2.5-1.13,2.53-2.53,2.53Z" style="fill:#fff;"></path><g><path d="M281.01,300.58c-6.85,.84-13.73,1.92-20.39,3.77-3.32,.92-6.57,1.99-9.81,3.13-1.62,.57-3.24,1.08-4.88,1.59-1.68,.52-3.49,1.01-5.25,1.1-.16,0-.15,.25,0,.25,1.72,.01,3.36,.02,5.08-.19,1.63-.21,3.24-.59,4.82-1.01,3.37-.9,6.7-1.96,10.06-2.89,6.78-1.89,13.56-3.77,20.47-5.17,.32-.06,.23-.61-.1-.57Z" style="fill:#263238;"></path><path d="M298.17,306.34c-5.66-.46-11.43-.66-17.11-.48-2.86,.09-5.69,.35-8.52,.68-1.36,.16-2.71,.34-4.06,.54-1.49,.22-2.94,.64-4.43,.84-.15,.02-.15,.26,0,.25,1.41-.14,2.85-.06,4.26-.12,1.42-.06,2.84-.14,4.26-.2,2.85-.13,5.69-.22,8.54-.37,5.69-.31,11.37-.55,17.07-.66,.31,0,.28-.44-.02-.47Z" style="fill:#263238;"></path></g></g><g><path d="M215.26,221.83c-39.97,39.74-68.13,71.7-67.05,86.49,2.43,33.14,21.22,38.86,24.29,37.66,32.39-12.7,49.43-73.7,61.51-112.2,11.99-38.21-7.3-23.33-18.74-11.95Z" style="fill: rgb(235, 148, 129);"></path><g><path d="M158.53,276.45l53.89,25.63s19.24-45.73,25.23-74.01c5.99-28.28-5.17-26.86-28.63-3.86-23.46,23.01-50.49,52.24-50.49,52.24Z" style="fill:#334155;"></path><path d="M210.33,240.53c-1.66,0-3.02,1.36-3.02,3.02s1.36,3.05,3.02,3.05,3.05-1.38,3.05-3.05-1.35-3.02-3.05-3.02Zm0,5.55c-1.37,0-2.5-1.13-2.5-2.53s1.13-2.5,2.5-2.5,2.53,1.13,2.53,2.5-1.13,2.53-2.53,2.53Zm15.58-30.39c-1.66,0-3.02,1.36-3.02,3.02s1.36,3.05,3.02,3.05,3.05-1.38,3.05-3.05-1.35-3.02-3.05-3.02Zm0,5.55c-1.37,0-2.5-1.13-2.5-2.53s1.13-2.5,2.5-2.5,2.53,1.13,2.53,2.5-1.13,2.53-2.53,2.53Zm-15.58,69.41c-1.66,0-3.02,1.36-3.02,3.02s1.36,3.05,3.02,3.05,3.05-1.38,3.05-3.05-1.35-3.02-3.05-3.02Zm0,5.55c-1.37,0-2.5-1.13-2.5-2.53s1.13-2.5,2.5-2.5,2.53,1.13,2.53,2.5-1.13,2.53-2.53,2.53Zm-43.81-28.31c-.14,.15-.28,.3-.42,.44,.03,.16,.05,.33,.05,.5,0,1.4-1.13,2.53-2.53,2.53-.11,0-.22-.01-.33-.02-.15,.15-.28,.3-.41,.44,.24,.07,.48,.1,.74,.1,1.7,0,3.05-1.38,3.05-3.05,0-.33-.05-.64-.15-.94Zm28.24-2.08c-1.66,0-3.02,1.36-3.02,3.02s1.36,3.05,3.02,3.05,3.05-1.38,3.05-3.05-1.35-3.02-3.05-3.02Zm0,5.55c-1.37,0-2.5-1.13-2.5-2.53s1.13-2.5,2.5-2.5,2.53,1.13,2.53,2.5-1.13,2.53-2.53,2.53Zm31.15-5.55c-1.66,0-3.02,1.36-3.02,3.02,0,1.1,.59,2.07,1.46,2.61,.06-.16,.12-.33,.18-.5-.67-.46-1.12-1.23-1.12-2.11,0-1.37,1.13-2.5,2.5-2.5,.09,0,.18,0,.27,.01,.06-.16,.11-.32,.17-.49-.14-.03-.29-.04-.44-.04Z" style="fill:#fff;"></path><path d="M168.87,267.84c20.93,12.56,40.97,20.38,45.01,22.43,.19,.1,.33-.22,.13-.31-4.07-1.8-26.28-14.01-45-22.46-.22-.1-.34,.22-.14,.34Z" style="fill:#263238;"></path><path d="M208.94,300.29c.34,0,2.73,.96,3.22,1.17,4.26-10.25,3.52-7.92,7.88-18.13,2.14-5.01,4.28-10.01,6.41-15.02,2.21-5.21,4.14-10.61,6.63-15.69,.07-.15,.28-.06,.24,.1-1.31,4.88-3.21,9.65-4.99,14.39,.42-.74,.81-1.5,1.27-2.23,1.03-1.62,2.04-3.24,2.94-4.93,.14-.26,.57-.09,.43,.18-.86,1.62-1.6,3.27-2.33,4.95-.73,1.68-1.56,3.3-2.41,4.92-.82,1.57-1.74,3.07-2.67,4.57-.11,.18-.22,.37-.34,.56-1.15,2.97-2.26,5.95-3.47,8.9-4.26,10.31-8.83,18.5-9,18.47-.7-.13-3.62-1.73-3.91-1.91-.15-.1-.02-.29,.12-.29Z" style="fill:#263238;"></path></g></g><g><path d="M224.82,160.49c3.11,1.81,7.12,1.88,10.17-.14,3-1.99,4.52-5.64,4.11-9.16,3.45,1.72,7.59,1.74,10.48-1.32,2.99-3.16,2.72-7.7,.15-10.99-.02-.02-.06,0-.05,.03,2.02,3.25,2.21,7.58-.59,10.46-2.39,2.46-5.41,2.65-8.28,1.72,2.85-.11,5.69-1.11,7.59-3.31,2.09-2.42,2.63-6.01,1.16-8.84,3.27-1.6,6.19-4.45,6.83-8.16,.54-3.12-.71-6.44-3.37-8.14,2.87-2.19,4.35-6.06,3.38-9.61-.9-3.33-3.75-5.82-7.07-6.51,4.07-3.62,3-10.38-2.08-12.55,1.23-1.53,1.31-3.71,.41-5.48-1.03-2.05-3.14-3.19-5.26-3.88,.16-2.02-.61-4.11-2.28-5.36-2.23-1.67-5.21-1.32-7.13,.51-2.15-2.93-4.88-5.82-8.56-6.59-3.02-.64-6.47,.29-8.22,2.92-4.54-4.73-12.14-4.46-16.34,.61-2.35-1.37-5.3-1.25-7.67,.12-2.38,1.37-3.56,2.92-4.05,3.7-2.21-1.07-4.9-.5-6.6,1.27-1.67,1.75-2.02,3.99-1.81,6.25-.28,.55-.64,1.02-1.24,1.49-2.67,2.12-4.11,5.21-3.89,8.61-3.78,1.35-5.54,6.12-3.54,9.6-3.26,2.47-3.84,7.52-1.26,10.68-2.34,2.21-3.69,5.35-3.53,8.59,.12,2.49,1.32,5.21,3.75,6.04-1.3,1.47-.67,3.83,.68,5.17,.51,.51,1.11,.92,1.72,1.31,.73,.45,1.78,.83,2.3,1.52,.56,.71,.48,1.75,.67,2.59,.14,.6,.34,1.19,.6,1.75,1.99,4.22,7.01,6.59,11.49,5.4,.75,3.23,3.93,4.95,7.03,5.53,1.02,.19,2.02,.21,3.06,.22,.95,0,1.78,.07,2.61,.62,.5,.33,.92,.78,1.42,1.12,1.7,1.14,3.66,.96,5.56,.57,2.35,8.55,13.18,8.45,17.65,1.68Zm-43.41-77.37c1.53-2.18,4.05-3,6.6-2.38-.09,.17-.15,.28-.15,.28,0,0-.84,.02-1.24,.07-.74,.11-1.46,.33-2.13,.65-1.41,.66-2.63,1.74-3.43,3.07-.36,.6-.6,1.24-.8,1.91-.03,.09-.06,.16-.08,.24,.1-1.35,.4-2.64,1.24-3.84Zm58.52-1.83c-1.74-1.7-4.45-2.18-6.61-1.1-.04-.05-.08-.1-.12-.16,2.06-1.42,4.33-2.15,6.63-.37,1.6,1.24,2.03,2.96,1.88,4.73h-.04c-.29-1.16-.85-2.23-1.75-3.1Zm-32.37,77.44s.06-.01,.09-.02c3.03,5.09,9.36,6.52,14.17,3.87-5.1,3.3-11.43,3.2-14.26-3.85Z" style="fill:#263238;"></path><g><path d="M234.35,216.03c.81,2.62,15.22,23.33,29.19,19.7,5.87-1.53-.02-24.23-.02-24.23l3.7-24.37-31.44-17.03s-1.76,44.82-1.43,45.93Z" style="fill: rgb(235, 148, 129);"></path><path d="M267.22,187.12l-3.59,23.66c-3.55-.32-19.4-3.03-28.48-23.83,.34-9.12,.64-16.85,.64-16.85l31.43,17.02Z" style="fill:#263238;"></path></g><g><path d="M295.75,149.99c12.32,38.45-9.31,50.18-17.61,52.82-7.53,2.4-33.47,9.63-49.7-27.34-16.23-36.97-2.25-54.86,14.68-61.27,16.93-6.41,40.31-2.67,52.63,35.78Z" style="fill: rgb(235, 148, 129);"></path><g><path d="M282.48,139.68c-.95-.01-1.84,.13-2.78,.22-1.07,.1-1.92,.06-2.79,.76-.47,.38-.55,1.25-.22,1.74,.75,1.13,2.09,1.34,3.37,1.28,1.4-.07,2.46-.48,3.5-1.41,1.01-.9,.19-2.57-1.07-2.59Z" style="fill:#263238;"></path><path d="M255.56,155.54c.58-.76,1.24-1.36,1.89-2.05,.73-.78,1.23-1.48,2.32-1.73,.58-.13,1.32,.34,1.51,.9,.43,1.29-.23,2.47-1.07,3.45-.92,1.06-1.89,1.64-3.27,1.88-1.33,.23-2.14-1.44-1.38-2.44Z" style="fill:#263238;"></path><g><g><path d="M264.74,162.2c-.05-.1-.17,.18-.14,.29,.8,2.63,1.27,5.78-.89,7.31-.07,.05-.02,.18,.06,.14,2.82-1.2,2.15-5.38,.97-7.74Z" style="fill:#263238;"></path><path d="M261.62,160.07c-4.36,.83-2.38,9.48,1.66,8.71,3.97-.75,2-9.41-1.66-8.71Z" style="fill:#263238;"></path></g><path d="M260.02,160.91c-.64,.66-1.19,1.7-2.08,1.99-1.03,.35-2.03-.38-2.92-1.09-.09-.07-.15,.02-.13,.13,.35,1.66,1.38,3.22,3.21,3.06,1.67-.14,2.5-1.88,2.53-3.64,0-.33-.37-.72-.62-.45Z" style="fill:#263238;"></path></g><g><g><path d="M280.21,157.45c0-.11,.24,.08,.26,.19,.51,2.7,1.54,5.71,4.17,6.07,.08,.01,.1,.15,.01,.15-3.06,.24-4.39-3.78-4.44-6.42Z" style="fill:#263238;"></path><path d="M281.99,154.12c4.25-1.28,6.49,7.31,2.56,8.49-3.87,1.17-6.12-7.42-2.56-8.49Z" style="fill:#263238;"></path></g><path d="M283.93,154.22c.8,.28,1.68,.93,2.51,.77,.96-.18,1.41-1.29,1.77-2.34,.04-.11,.12-.05,.16,.06,.47,1.63,.38,3.48-1.12,4.21-1.36,.66-2.79-.47-3.61-2-.15-.28-.04-.81,.28-.69Z" style="fill:#263238;"></path></g><path d="M266.01,184.97c.76,.52,1.57,1.27,2.56,1.18,.96-.09,1.98-.72,2.78-1.21,.08-.05,.18,.03,.14,.12-.51,1.17-1.87,2.08-3.17,2.09-1.26,0-2.06-.94-2.56-2.01-.07-.15,.13-.25,.24-.17Z" style="fill:#263238;"></path><path d="M270.47,179.5c4.18-2.42,6.5-2.31,9.27-2.83,.28-.14,.89-.56,.85-.86v-.02c-.04-.09-1.91-5.4-1.91-5.4,.83,.13,5.02,.61,4.63-.4-3.22-8.34-6.8-17.61-11.76-25.22-.15-.26-.56-.06-.45,.21,2.78,8.13,6.96,15.73,9.88,23.85-1.31-.07-3.48-.29-4.5,.06-.25,.17,2.31,5.62,2.5,6.53,0,0-4.37-.38-8.99,3.7-1.03,.91-1.05,1.26,.48,.38Z" style="fill:#263238;"></path></g><g><path d="M263.91,117.9s2.51,5.64,1.19,10.22c-2.72,9.43-13.59,8.84-16.61,12.89-2.83,3.79-.55,10.32-3.06,14.06-3.47,5.18-9.49,4.38-9.69,7.52-.2,3.14-.61,13.09-4.25,14.94-3.63,1.85-31.77-59.28,18.69-65.48,0,0,6.42-3.95,17.98-.3,12.76,4.03,21.09,22.66,21.09,22.66,0,0-.29-.22-2.26-1.46-2.77-1.75-4.03-3.58-6.04-4.68-3.14-1.73-4.54-.65-7.78-2.3-4.95-2.51-9.27-8.07-9.27-8.07Z" style="fill:#263238;"></path><path d="M262.69,115.24c1.19,2.38,2.13,4.9,2.73,7.46,.62,2.54,.93,5.25,.16,7.66-.79,2.35-2.82,4.2-5.01,5.44-2.24,1.27-4.83,1.95-7.22,3.41-1.16,.76-2.28,1.72-2.94,3.09-.64,1.34-.76,2.78-.84,4.11-.11,2.67-.23,5.31-1.63,7.43-1.37,2.12-3.67,3.63-6.25,3.94-2.53,.42-5.43,.16-7.72,1.68,2.4-1.33,5.12-.84,7.79-1.07,2.74-.19,5.35-1.72,6.97-4,1.73-2.32,1.81-5.32,1.97-7.9,.09-1.31,.24-2.6,.77-3.66,.51-1.04,1.49-1.89,2.54-2.55,2.13-1.35,4.75-2.1,7.12-3.47,1.19-.68,2.31-1.53,3.25-2.55,.93-1,1.8-2.21,2.13-3.6,.73-2.75,.25-5.54-.49-8.11-.82-2.57-1.96-5.01-3.33-7.3Z" style="fill:#263238;"></path><path d="M264.02,117.38c.88,2.32,2.09,4.51,3.57,6.55,1.46,2.04,3.49,3.82,5.94,4.73,1.23,.47,2.56,.59,3.69,.79,1.09,.2,2.28,.67,3.01,1.38,.8,.82,1.61,1.89,2.67,2.62,1.06,.72,2.27,1.17,3.49,1.34-1.15-.45-2.25-1-3.11-1.83-.92-.78-1.53-1.77-2.34-2.79-.95-1.11-2.21-1.54-3.48-1.88-1.28-.26-2.42-.36-3.49-.8-2.18-.82-4.03-2.35-5.59-4.19-1.59-1.82-2.99-3.85-4.36-5.91Z" style="fill:#263238;"></path></g><g><path d="M239.13,172.08s-11.39-10.34-16.27-6c-4.88,4.33,5.63,20.68,12.73,21.63,7.1,.95,8.11-5.61,8.11-5.61l-4.57-10.02Z" style="fill: rgb(235, 148, 129);"></path><path d="M226,170.69c-.11,.01-.09,.17,0,.18,5.01,.82,8.4,4.52,11.09,8.55-1.75-1.39-3.82-1.9-5.73,.25-.1,.11,.06,.27,.18,.22,1.79-.83,3.22-.81,4.83,.4,1.14,.86,2.06,2.07,2.99,3.16,.31,.36,1-.03,.74-.46-.02-.03-.04-.07-.06-.1-1.22-5.88-7.63-13.03-14.05-12.2Z" style="fill:#263238;"></path></g></g><g><g><path d="M232.33,186.76c.47,1.76-6.09-3.06-6.56-3.9-.46-.84-4.59-2.65-5.9-4.2s-4.26-6.27-4.69-7.48c-.42-1.2-3.39-3.78-3.87-5.96-.48-2.18-3.97-21.8,6.14-37.75,10.11-15.95,21.51-19.39,21.51-19.39,0,0,7.78-3.24,17.44-4.71,9.67-1.47,28.35,17.78,28.5,18.26,.15,.48-.16,2.13,.59,3.38,.75,1.24,2.51,2.31,2.06,3.75-.46,1.45,2.2,4.33,2.48,5.71,.28,1.38,0,1.81,.45,2.7,.45,.88-9.41-22.31-40.43-24.2,0,0-27.87,35.95-17.72,73.79Z" style="fill:#334155;"></path><path d="M290.38,136.92c.02,.08,.06,.16,.11,.25,.04,.07,0-.02-.11-.25Z" style="fill:#334155;"></path><path d="M290.38,136.92c.02,.08,.06,.17,.11,.25,.04,.07,0-.02-.11-.25Z" style="fill:#334155;"></path><path d="M272.42,111.43c.32-.17,.66-.27,1-.3h0c.94,.74,1.86,1.48,2.73,2.21,0,0,0,0,0,0,.13,1-.35,2.02-1.29,2.54-1.23,.68-2.77,.23-3.45-1-.67-1.23-.23-2.77,1.01-3.45Zm-14.05,2.63c1.71,.35,3.34,.77,4.9,1.25,.23-.65,.18-1.39-.18-2.04-.67-1.23-2.21-1.68-3.45-1-.7,.39-1.15,1.06-1.28,1.79Zm19.54,8.58c1.39,1.03,2.64,2.08,3.78,3.13,1.03-.74,1.36-2.14,.74-3.28-.68-1.23-2.22-1.68-3.45-1.01-.49,.27-.85,.68-1.07,1.16Zm-55.95-1.42c.75,.95,2.11,1.25,3.21,.64,1.23-.67,1.68-2.21,1-3.44-.22-.39-.52-.71-.88-.93-1.09,1.12-2.22,2.35-3.34,3.73Zm5.18,20.81c.67,1.23,2.22,1.68,3.45,1.01,1.23-.67,1.68-2.22,1.01-3.45-.67-1.23-2.22-1.68-3.45-1.01-1.23,.67-1.68,2.22-1.01,3.45Zm23.21-35.94c.67,1.23,2.22,1.68,3.45,1.01,1.23-.67,1.67-2.22,1-3.45v-.02c-1.66,.29-3.25,.63-4.74,.98h0c-.05,.5,.04,1.01,.3,1.47Zm-12.14,8.62c.67,1.23,2.22,1.68,3.45,1.01,1.23-.67,1.68-2.22,1.01-3.45-.67-1.23-2.22-1.68-3.45-1.01-1.23,.67-1.68,2.22-1.01,3.45Zm-4.39,13.53c.67,1.23,2.22,1.68,3.45,1.01,1.23-.67,1.68-2.22,1.01-3.45-.67-1.23-2.22-1.68-3.45-1.01-1.23,.67-1.68,2.22-1.01,3.45Zm-17.93,6.93c.67,1.23,2.22,1.68,3.45,1.01,1.23-.67,1.68-2.22,1.01-3.45-.67-1.23-2.22-1.68-3.45-1.01-1.23,.67-1.68,2.22-1.01,3.45Zm4.06,18.88c.67,1.23,2.22,1.68,3.45,1.01,1.23-.67,1.68-2.22,1.01-3.45-.67-1.23-2.22-1.68-3.45-1.01-1.23,.67-1.68,2.22-1.01,3.45Zm8.25,27.46c.62,1.14,1.99,1.6,3.17,1.13-.33-1.63-.6-3.26-.79-4.89-.46-.03-.94,.06-1.38,.3-1.23,.67-1.68,2.21-1,3.45Zm1.45-21.23c.22,.4,.53,.72,.91,.94,.17-1.55,.39-3.09,.65-4.61-.19,.05-.37,.12-.55,.22-1.23,.67-1.68,2.21-1,3.44Zm-19.17-10.06c.65,.22,1.38,.17,2.02-.18,1.23-.67,1.68-2.21,1-3.44-.51-.92-1.51-1.41-2.49-1.31-.25,1.7-.43,3.36-.53,4.93Zm9.52,18.78c.67,1.23,2.22,1.68,3.45,1.01,1.23-.67,1.68-2.22,1.01-3.45-.67-1.23-2.22-1.68-3.45-1.01-1.23,.67-1.68,2.22-1.01,3.45Zm-3.62,4.46c.64,1.07,1.43,2.32,2.14,3.37,.24-.65,.2-1.41-.16-2.06-.42-.76-1.17-1.23-1.98-1.3Zm-5.25-9.19c.44,.02,.89-.08,1.31-.31,1.23-.67,1.68-2.21,1-3.45-.58-1.06-1.8-1.54-2.91-1.22,.17,2.21,.42,3.93,.61,4.98Z" style="fill:#fff; opacity:.3;"></path><g><path d="M225.78,182.86c-.67-1.67-.96-3.46-1.28-5.23-.32-1.77-.59-3.55-.84-5.33-.49-3.56-.96-7.14-1.27-10.72-.08-.89-.17-1.79-.19-2.67,.01-.85,.22-1.72,.43-2.58,.44-1.73,1.01-3.44,1.54-5.16,.55-1.71,1.13-3.42,1.73-5.12l1.78-5.1c-1.43,3.31-2.76,6.66-3.97,10.06-.61,1.7-1.17,3.42-1.64,5.17-.23,.88-.45,1.77-.48,2.73,0,.93,.09,1.82,.16,2.72,.36,3.6,.83,7.17,1.42,10.73,.31,1.78,.62,3.55,1.01,5.32,.2,.88,.41,1.76,.65,2.63,.24,.87,.51,1.74,.93,2.54Z" style="fill:#050400; opacity:.1;"></path><path d="M219.37,146.3c-1.05,1.88-1.89,3.87-2.65,5.88-.76,2.02-1.39,4.09-1.84,6.2-.43,2.12-.78,4.26-.76,6.44,.01,2.16,.28,4.35,1.07,6.36-.1-.53-.21-1.05-.33-1.57-.07-.26-.09-.52-.11-.79l-.07-.8c-.02-.26-.06-.53-.08-.79v-.8c0-.53-.05-1.06,.02-1.59l.11-1.59,.21-1.58c.06-.53,.16-1.05,.26-1.57,.1-.52,.18-1.05,.31-1.57,.43-2.09,1.04-4.14,1.68-6.18,.32-1.02,.67-2.03,1.05-3.03,.35-1.01,.75-2.01,1.15-3.01Z" style="fill:#050400; opacity:.1;"></path><path d="M284.94,123.98c-1.29-1.6-2.9-2.9-4.45-4.22-1.57-1.31-3.19-2.56-4.82-3.79-1.66-1.2-3.27-2.44-5.07-3.48-1.81-1-3.75-1.74-5.75-2.16,.96,.34,1.91,.71,2.83,1.15,.92,.42,1.82,.89,2.67,1.43,.85,.54,1.66,1.15,2.48,1.75l2.46,1.82,4.9,3.66c.82,.61,1.62,1.23,2.42,1.86,.81,.62,1.6,1.26,2.33,1.98Z" style="fill:#050400; opacity:.1;"></path><path d="M287.59,129.7c-.84-1.22-1.82-2.32-2.82-3.41-1-1.09-2.05-2.12-3.16-3.1-.56-.48-1.14-.96-1.76-1.37-.62-.39-1.24-.8-1.87-1.18l-1.89-1.15c-.64-.36-1.27-.75-1.92-1.09,.57,.47,1.17,.9,1.75,1.35l1.78,1.29c.59,.44,1.2,.84,1.8,1.26,.59,.41,1.14,.88,1.69,1.36,1.1,.95,2.16,1.96,3.23,2.96,.53,.5,1.06,1.01,1.59,1.52,.54,.5,1.05,1.02,1.57,1.55Z" style="fill:#050400; opacity:.1;"></path></g><path d="M219.6,124.31c5.35,1.01,17.58,3.17,20.09,2.41,.59-.18,1.43-.56,2.45-1.07,4.21-7.9,7.91-12.67,7.91-12.67,3.88,.24,7.44,.81,10.68,1.63,2.68-2.57,5.38-6.43,6.35-7.86-3.88-2.32-7.7-3.83-10.68-3.38-9.67,1.47-17.44,4.71-17.44,4.71,0,0-9.85,2.97-19.37,16.23Z" style="fill:#050400; opacity:.1;"></path></g><g><g><path d="M247.15,107.99s7.08-14.78,21-17.86c0,0,.92,14.02-3.54,19.15-2.22,2.55-13.15,4.67-14.64,2.98-1.49-1.7-2.82-4.26-2.82-4.26Z" style="fill:#334155;"></path><path d="M260.52,93.23c.28,1.09-.2,2.28-1.24,2.85-.84,.46-1.83,.39-2.58-.09,1.17-.99,2.44-1.92,3.83-2.75Zm4.61,10.37c.37,.67,1,1.11,1.7,1.26,.47-1.57,.8-3.29,1-4.97-.56-.11-1.16-.03-1.69,.27-1.23,.67-1.67,2.22-1,3.45Zm-14.77,2.49c.67,1.23,2.22,1.68,3.45,1.01,1.23-.67,1.68-2.22,1.01-3.45-.67-1.23-2.22-1.68-3.45-1.01-1.23,.67-1.68,2.22-1.01,3.45Z" style="fill:#fff; opacity:.3;"></path><path d="M247.15,108s1.34,2.55,2.81,4.24c.05,.07,.13,.14,.24,.19,.08,.07,.19,.12,.34,.17,.09,.01,.17,.06,.29,.08,1.31,.36,3.68,.18,6.13-.33-.5-1.84-1.29-4.21-2.16-5.9-.75-1.45-2.7-2.58-4.61-3.39-2.05,2.81-3.05,4.94-3.05,4.94Z" style="fill:#050400; opacity:.1;"></path></g><g><path d="M243.92,110.27s-19.93-.95-28.92,4.3c0,0,6.22,9.68,16.31,11.17,4.52,.67,16.55-8.69,15.61-10.92-.94-2.23-3-4.54-3-4.54Z" style="fill:#334155;"></path><path d="M222.74,117.41c1.23-.67,2.77-.22,3.45,1.01,.67,1.23,.22,2.77-1.01,3.45-1.23,.67-2.77,.22-3.45-1.01-.67-1.23-.22-2.77,1.01-3.45Zm15.49-2.7c.67,1.23,2.22,1.68,3.45,1.01,1.23-.67,1.68-2.22,1.01-3.45-.67-1.23-2.22-1.68-3.45-1.01-1.23,.67-1.68,2.22-1.01,3.45Zm-3.99,10.55c.59-.2,1.2-.47,1.84-.77-.42,0-.84,.09-1.23,.31-.23,.13-.44,.28-.61,.46Z" style="fill:#fff; opacity:.3;"></path><path d="M239.39,110.2c-.17,1.86-.09,4.49,1.04,6.45,.62,1.1,1.71,2.09,2.92,2.95,2.35-2.01,3.92-3.92,3.57-4.8-.93-2.21-3-4.54-3-4.54,0,0-1.78-.09-4.52-.06Z" style="fill:#050400; opacity:.1;"></path></g><path d="M242.33,114.93c1.97,2.99,6,3.81,8.98,1.83,2.99-1.97,3.81-6,1.83-8.98-1.97-2.99-6-3.81-8.98-1.83-2.99,1.97-3.81,6-1.83,8.98Z" style="fill:#334155;"></path></g></g></g><g><path d="M173.76,344.36c7.23-13.07,12.39-42.46-2.95-99.65-2.12-7.91-60.18,3.22-58.35,11.78,2.31,10.79,13.6,52.17,14.8,55.09,10.19,24.64,41.59,41.64,46.49,32.77Z" style="fill: rgb(235, 148, 129);"></path><path d="M178.63,333.57c1.58-4.23,2.56-8.67,3.22-13.14,.31-2.24,.57-4.49,.71-6.74,.16-2.29,.1-4.56-.02-6.82-.23-4.52-.72-9-1.4-13.45-.68-4.45-1.56-8.89-2.82-13.21,.7,4.44,1.19,8.9,1.63,13.36,.43,4.46,.79,8.92,.99,13.38,.08,2.23,.15,4.45,.03,6.65-.13,2.23-.28,4.45-.5,6.67-.43,4.44-.97,8.88-1.84,13.3Z" style="fill:#263238;"></path><g><g><path d="M142.34,269.16c-6.68-.17-42.62-2.92-51.02-5.43-14.38-4.3-26.76-10.38-24.47-16.73,2.1-5.84,18.09-.39,18.09-.39,0,0-22.16-13.04-19.46-21.8,2.01-6.52,11.88-.52,11.88-.52,0,0-10.27-8.45-5.93-13.71,3.6-4.36,24.75,9,24.75,9,0,0-19.86-15.04-12.08-20.61,5.11-3.66,14.5,7.96,26.31,11.29,1.04,.29,11.25,2.38,21.38,4.42,10.54,2.13,39.41,31.49,39.41,31.49l-28.87,22.99Z" style="fill: rgb(235, 148, 129);"></path><path d="M96.49,219.5c6.99,3.92,12.2,5.22,16.88,6.47,.14,.04,.1,.43-.06,.41-8.33-.97-10.73-1.82-17.1-6.53-.35-.26-.06-.54,.28-.35Z" style="fill:#263238;"></path><path d="M77.84,224.23c11.87,8.33,18.59,10.64,32.66,13.62,.2,.04,.15,.38-.06,.36-14.05-1.77-22.16-3.43-32.93-13.31-.49-.45-.22-1.05,.33-.66Z" style="fill:#263238;"></path><path d="M85.21,246.37c7.88,2.29,10.15,2.61,18.65,4.27,.22,.04,.23,.52,0,.51-8.58-.41-11.7-.71-18.76-4.36-.54-.28-.46-.58,.11-.41Z" style="fill:#263238;"></path></g><g><path d="M171.21,246.17s-6.57-27.51-18.81-37.25c-6.14-4.88-35.02-18.8-38.45-13-4.43,7.49,9.91,18.89,17.66,23.56,0,0-10.26,17.31-1.74,27.72,8.52,10.41,41.34-1.03,41.34-1.03Z" style="fill: rgb(235, 148, 129);"></path><path d="M113.41,198.37c.89,9.74,11.46,15.21,18.64,20.31,.55,.39,.43,.96,.05,1.32-3.82,7.54-7.01,19.29-2.78,27.15,.12,.23-.19,.44-.34,.22-5.68-7.81-3.49-19.61,1.22-27.6-7.45-5.11-17.81-11.06-16.88-21.39,0-.06,.09-.07,.09,0Z" style="fill:#263238;"></path></g></g></g><g><path d="M325.1,344.16c-7.23-13.07-12.39-42.46,2.95-99.65,2.12-7.91,60.18,3.22,58.35,11.78-2.31,10.79-13.6,52.17-14.8,55.09-10.19,24.64-41.59,41.64-46.49,32.77Z" style="fill: rgb(235, 148, 129);"></path><path d="M320.24,333.37c-1.58-4.23-2.56-8.67-3.22-13.14-.31-2.24-.57-4.49-.71-6.74-.16-2.29-.1-4.56,.02-6.82,.23-4.52,.72-9,1.4-13.45,.68-4.45,1.56-8.89,2.82-13.21-.7,4.44-1.19,8.9-1.63,13.36-.43,4.46-.79,8.92-.99,13.38-.08,2.23-.15,4.45-.03,6.65,.13,2.23,.28,4.45,.5,6.67,.43,4.44,.97,8.88,1.84,13.3Z" style="fill:#263238;"></path><g><g><path d="M356.52,268.96c6.68-.17,42.62-2.92,51.02-5.43,14.38-4.3,26.76-10.38,24.47-16.73-2.1-5.84-18.09-.39-18.09-.39,0,0,22.16-13.04,19.46-21.8-2.01-6.52-11.88-.52-11.88-.52,0,0,10.27-8.45,5.93-13.71-3.6-4.36-24.75,9-24.75,9,0,0,19.86-15.04,12.08-20.61-5.11-3.66-14.5,7.96-26.31,11.29-1.04,.29-11.25,2.38-21.38,4.42-10.54,2.13-39.41,31.49-39.41,31.49l28.87,22.99Z" style="fill: rgb(235, 148, 129);"></path><path d="M402.37,219.3c-6.99,3.92-12.2,5.22-16.88,6.47-.14,.04-.1,.43,.06,.41,8.33-.97,10.73-1.82,17.1-6.53,.35-.26,.06-.54-.28-.35Z" style="fill:#263238;"></path><path d="M421.02,224.02c-11.87,8.33-18.59,10.64-32.66,13.62-.2,.04-.15,.38,.06,.36,14.05-1.77,22.16-3.43,32.93-13.31,.49-.45,.22-1.05-.33-.66Z" style="fill:#263238;"></path><path d="M413.65,246.17c-7.88,2.29-10.15,2.61-18.65,4.27-.22,.04-.23,.52,0,.51,8.58-.41,11.7-.71,18.76-4.36,.54-.28,.46-.58-.11-.41Z" style="fill:#263238;"></path></g><g><path d="M327.65,245.97s6.57-27.51,18.81-37.25c6.14-4.88,35.02-18.8,38.45-13,4.43,7.49-9.91,18.89-17.66,23.56,0,0,10.26,17.31,1.74,27.72-8.52,10.41-41.34-1.03-41.34-1.03Z" style="fill: rgb(235, 148, 129);"></path><path d="M385.46,198.17c-.89,9.74-11.46,15.21-18.64,20.31-.55,.39-.43,.96-.05,1.32,3.82,7.54,7.01,19.29,2.78,27.15-.12,.23,.19,.44,.34,.22,5.68-7.81,3.49-19.61-1.22-27.6,7.45-5.11,17.81-11.06,16.88-21.39,0-.06-.09-.07-.09,0Z" style="fill:#263238;"></path></g></g></g></g></g><g id="freepik--Symbol--inject-66"><path d="M314.76,97.7l-1.62,9.51c-.7,4.1-4.29,6.65-8.39,5.95-3.8-.65-6.64-4.29-5.95-8.39l2.59-15.21c.02-.15,.17-.12,.2-.27q-.12-.17-.1-.32c.65-3.8,4.59-6.59,8.39-5.95,9.21,1.57,17.92-4.47,19.47-13.54,1.57-9.22-4.67-17.65-13.88-19.22-6-1.02-11.81,1.3-15.41,5.65-2.65,3.16-7.23,3.58-10.4,.94-3.02-2.62-3.46-7.06-.82-10.23,6.81-8.17,17.81-12.62,29.07-10.7,16.97,2.89,28.52,19.01,25.63,35.98-2.47,14.48-14.63,24.9-28.78,25.8Zm-5.46,32.03l-.45,2.63c-.7,4.1-4.29,6.64-8.39,5.95-3.8-.65-6.65-4.29-5.95-8.39l.45-2.63c.67-3.95,4.59-6.59,8.39-5.95,4.1,.7,6.62,4.44,5.95,8.39Z" style="fill:#455a64;"></path></g></svg>